<svg xmlns="http://www.w3.org/2000/svg" viewBox="0 0 64 64" id="aries"><path fill="none" stroke="#f16130" stroke-miterlimit="10" d="M34.3 46.75c-.08.13-.16.27-.24.41"></path><path fill="#e7b152" d="M51.77 27.64c-1.79 1.04-3.75 1.93-5.16 3.71-.26.33-.62.58-1.03.7-1.32.4-2.77-.12-4.15.19l-.5-1.71c.63-1.39 1.14-2.51 1.8-3.34.19-.16.38-.36.57-.6.65-.58 1.46-.94 2.61-1.07.28-.03.56-.02.84.03 1.78.35 3.45.83 4.99 1.48.25.11.28.47.03.61z"></path><path fill="#727373" d="M50.62 27.25c-4.13-.07-6.76 1.35-8.14 3.97-.28-.06-.49-.18-.57-.45a.679.679 0 0 1 .1-.57c2.05-3.14 6.45-3.98 8.61-2.95z"></path><path fill="#ffcb66" d="M50.62 27.25c-1.03.47-1.97.88-2.59 1.31-.21.15-.39.34-.56.54-1.08 1.29-2.33 1.98-4.05 2.14-.35.02-.68.03-.94-.02 1.38-2.62 4.01-4.04 8.14-3.97z"></path><path fill="#e7b152" d="m23.07 30.53-.5 1.71c-1.38-.3-2.82.21-4.15-.19-.41-.12-.77-.37-1.03-.7-1.41-1.77-3.37-2.66-5.16-3.71-.24-.14-.22-.5.04-.61 1.54-.65 3.21-1.13 4.99-1.48.28-.05.56-.06.84-.03 1.14.14 1.96.49 2.61 1.07.19.23.37.43.56.6.66.83 1.17 1.94 1.8 3.34z"></path><path fill="#727373" d="M13.38 27.25c4.13-.07 6.76 1.35 8.14 3.97.28-.06.49-.18.57-.45.06-.19.01-.41-.1-.57-2.05-3.14-6.45-3.98-8.61-2.95z"></path><path fill="#ffcb66" d="M13.38 27.25c1.03.47 1.97.88 2.59 1.31.21.15.39.34.56.54 1.08 1.29 2.33 1.98 4.05 2.14.35.02.68.03.94-.02-1.38-2.62-4.01-4.04-8.14-3.97z"></path><path fill="#be8d5e" d="M50.24 50.54c12.49-5.79 14.67-28.62 5.41-30.62-8.39-2.27-15.73.98-21.36 10.21a1.23 1.23 0 0 1-.41-.17c-.29-.18-.49-.47-.6-.79-.01-.04-.03-.09-.04-.13-.93-3-.49-5.51.83-7.71.84-1.39 2.03-2.66 3.45-3.85 11.46-7.78 23.37-3.95 26.21 8.93.16.7.24 1.42.26 2.13.28 10.89-6.52 21.01-13.75 22z"></path><path fill="#a7794f" d="M50.24 50.54c5.69-5.42 9.08-11.95 7.91-19.68-.19-1.26-.54-2.5-1.12-3.65-3.24-6.37-10.75-5.76-16.75-.87-.52.42-.32 1.27.34 1.39.79.15 1.47.01 2.11-.54-.66.83-1.17 1.95-1.8 3.34-.43-.69-1.15-1.19-2.3-1.39-.8-.14-1.62.02-2.32.43-.76.46-1.45.69-2.02.55 5.63-9.22 12.97-12.47 21.36-10.21 9.26 2.01 7.08 24.84-5.41 30.63z"></path><path fill="#be8d5e" d="M30.72 29.14c0 .01 0 .01-.01.02-.1.32-.31.61-.59.79-.13.08-.27.14-.42.17-5.63-9.22-12.96-12.47-21.35-10.2-9.26 2-7.08 24.83 5.41 30.62-7.22-.98-14.03-11.11-13.75-22 .02-.72.1-1.43.26-2.13C3.11 13.52 15.02 9.7 26.48 17.48c1.44 1.21 2.65 2.5 3.49 3.92 1.3 2.2 1.72 4.73.75 7.74z"></path><path fill="#a7794f" d="M29.7 30.12c-.58.13-1.26-.09-2.02-.55-.69-.42-1.52-.58-2.32-.43-1.15.21-1.87.7-2.3 1.39-.63-1.39-1.14-2.51-1.8-3.34.64.55 1.32.7 2.12.55.65-.13.85-.97.34-1.39-6-4.88-13.51-5.5-16.75.87-.58 1.14-.92 2.38-1.12 3.65-1.18 7.73 2.21 14.26 7.91 19.68C1.27 44.75-.91 21.92 8.35 19.92c8.39-2.27 15.72.98 21.35 10.2z"></path><path fill="none" stroke="#f16130" stroke-miterlimit="10" d="M29.95 47.15c-.08-.14-.16-.27-.24-.41"></path><path fill="#e7b152" d="M33.25 29.03c-.82-.83-1.66-.75-2.53.11.97-3.02.55-5.54-.76-7.75 1.4-.64 2.77-.69 4.11-.06-1.32 2.2-1.76 4.71-.82 7.7z"></path><path fill="#ffcb66" d="m41.43 32.23-.38.2c-.02.01-.04.02-.05.04-.04.04-.07.09-.08.14-.09.47-.2.91-.35 1.28-.04.37-.19.75-.41 1.14-.43.79-1.12 1.63-1.56 2.45-.1 2.17-.4 3.94-1.74 5.27-.32.32-.77.5-1.23.5h-7.27c-.46 0-.9-.17-1.23-.5-1.34-1.33-1.64-3.1-1.74-5.27-.44-.82-1.12-1.65-1.56-2.45-.22-.39-.37-.77-.41-1.14-.16-.37-.27-.81-.35-1.28a.285.285 0 0 0-.08-.14c-.01-.01-.03-.02-.05-.04l-.38-.2.5-1.71c.43-.69 1.15-1.19 2.3-1.39.8-.14 1.62.02 2.32.43.76.46 1.45.69 2.02.55.15-.03.28-.09.42-.17.29-.18.49-.47.59-.79 0-.01 0-.01.01-.02.86-.86 1.71-.94 2.53-.11.01.04.03.09.04.13.1.32.31.61.6.79.13.08.27.14.41.17.58.13 1.26-.09 2.02-.55.69-.42 1.52-.58 2.32-.43 1.15.21 1.87.7 2.3 1.39l.49 1.71z"></path><path fill="#818282" d="m22.57 32.23.38.2c.02.01.04.02.05.04.04.04.07.09.08.14.09.47.2.91.35 1.28.04.37.19.75.41 1.14 1.28.35 1.97-.17 2.31-1.28.47.94.88 1.79 1.09 2.55.01.05.09.06.11.01l.22-.4c.01-.02.01-.04 0-.05-.8-1.84-1.67-3.41-2.69-4.55a1.04 1.04 0 0 0-1.25-.24c-.42.22-.76.64-1.06 1.16z"></path><path fill="#d9d8d6" d="M23.01 32.47c.04.04.07.09.08.14.09.47.2.91.35 1.28.66.77 1.7.61 2.3-.32.12-.18.11-.42-.01-.59-.31-.46-.65-.86-1.01-1.16a.698.698 0 0 0-.78-.08c-.33.18-.64.43-.93.73z"></path><path fill="#5f6161" d="M23.46 32.74c0 .12.38.27.85.27s.85-.15.85-.27c0-.11-.38-.27-.85-.27-.47.01-.85.16-.85.27z"></path><path fill="#818282" d="m41.43 32.23-.38.2c-.02.01-.04.02-.05.04-.04.04-.07.09-.08.14-.09.47-.2.91-.35 1.28-.04.37-.19.75-.41 1.14-1.28.35-1.97-.17-2.31-1.28-.47.94-.88 1.79-1.09 2.55-.01.05-.09.06-.11.01l-.22-.4c-.01-.02-.01-.04 0-.05.8-1.84 1.67-3.41 2.69-4.55.31-.35.83-.46 1.25-.24.42.22.76.64 1.06 1.16z"></path><path fill="#d9d8d6" d="M41 32.47c-.04.04-.07.09-.08.14-.09.47-.2.91-.35 1.28-.66.77-1.7.61-2.3-.32a.528.528 0 0 1 .01-.59c.31-.46.65-.86 1.01-1.16.22-.18.53-.22.78-.08.32.18.63.43.93.73z"></path><path fill="#5f6161" d="M40.54 32.74c0 .12-.38.27-.85.27s-.85-.15-.85-.27c0-.11.38-.27.85-.27.47.01.85.16.85.27z"></path><path fill="#efba73" d="M33.4 36.19c-.17-.76-.34-1.57-.56-2.36-.24-.84-1.44-.84-1.68 0-.22.79-.39 1.6-.56 2.36-.27 1.18-.8 2.29-1.62 3.18-.97 1.07-1.59 2.65-1.59 4.41 0 3.22 2.06 5.83 4.6 5.83s4.6-2.61 4.6-5.83c0-1.76-.61-3.34-1.59-4.41-.8-.89-1.34-2-1.6-3.18z"></path><path fill="#d9a062" d="M33.54 46.42c-.21.42-.03.86.3 1.08.16.11.35.16.55.13-.08.04-.15.09-.23.12-.08.04-.16.07-.24.11-.07.03-.14.06-.21.08-.02.01-.05.02-.07.02-.07.02-.15.05-.22.07l-.23.06c-.02.01-.04.01-.06.01-.08.02-.15.03-.23.04-.09.01-.18.03-.27.04-.09.01-.18.02-.27.02-.23.01-.45.02-.68 0-.09-.01-.17-.01-.26-.02h-.01c-.09-.01-.18-.03-.26-.04l-.04-.01c-.07-.01-.15-.03-.22-.04-.01 0-.01 0-.02-.01l-.24-.06h-.01c-.08-.02-.17-.05-.25-.08-.08-.03-.16-.06-.25-.09-.07-.03-.13-.06-.2-.09-.03-.01-.05-.03-.08-.04a1.14 1.14 0 0 1-.19-.1c.22.04.43-.01.6-.13.33-.22.51-.66.3-1.08l-1.43-2.94c-.1-.2-.07-.44.06-.61.05-.07.11-.12.19-.17.07-.04.14-.07.21-.11l1.78 1.64c.36.34.92.34 1.29 0l1.8-1.65c.09.04.18.08.27.13.06.03.11.07.15.11.16.17.21.44.1.66l-1.43 2.95z"></path><path fill="#284456" d="m34.97 43.48-.16.34c-1.79.58-3.62.59-5.5.03l-.18-.37a.576.576 0 0 1 .25-.77c1.77-.93 3.55-.92 5.35 0 .26.14.37.49.24.77z"></path><path fill="#c8c8c8" d="m34.45 42.58-1.8 1.65c-.36.34-.92.34-1.29 0l-1.78-1.64c1.61-.77 3.23-.77 4.87-.01z"></path><path fill="#3a556d" d="M36.17 44.91c0 4.99-8.34 4.99-8.34 0 .12 1.18.75 2.05 1.6 2.6.07.04.14.09.21.13.06.04.13.07.19.1.02.01.05.03.08.04.06.03.13.06.2.09.08.03.16.06.25.09.08.03.16.05.25.08h.01l.24.06c.01 0 .01 0 .02.01.07.01.15.03.22.04l.04.01c.09.01.17.03.26.04h.01c.09.01.17.02.26.02v-1.65c0-.49-.17-.95-.48-1.32l-2.01-2.37c.05-.07.11-.12.19-.17.07-.04.14-.07.21-.11l1.78 1.64c.36.34.92.34 1.29 0l1.8-1.65c.09.04.18.08.27.13.06.03.11.07.15.11 0 .01-.01.02-.02.02l-2.03 2.4c-.31.37-.48.84-.48 1.32v1.65c.09-.01.18-.01.27-.02.09-.01.18-.02.27-.04.08-.01.16-.03.23-.04.02 0 .04-.01.06-.01.08-.02.16-.04.23-.06.07-.02.15-.05.22-.07.02-.01.05-.01.07-.02.07-.03.14-.05.21-.08.08-.03.16-.07.24-.11.08-.04.16-.08.23-.12.07-.04.15-.09.22-.13.87-.57 1.47-1.43 1.58-2.61z"></path></svg>