<svg xmlns="http://www.w3.org/2000/svg" viewBox="0 0 512 512" id="ox"><path fill="#f89720" d="M148 151.9 5.2 255.9c30 26.7 75 27.5 105.9 1.9l36.9-30.6v-75.3zm216.2 0 142.8 104c-30 26.7-75 27.5-105.9 1.9l-36.9-30.6v-75.3z"></path><path fill="#f7c9ab" d="m414 5.1 20.2 32.7c10.7 17.2 6.5 39.8-9.6 52-6.9 5.2-15.2 8-23.8 8H111.3c-8.6 0-17-2.8-23.8-8-16.1-12.3-20.3-34.8-9.6-52L98 5.1 23.9 63.5C12 72.9 5 87.2 5 102.4c0 27.3 22.2 49.5 49.5 49.5h403c27.3 0 49.5-22.2 49.5-49.5 0-15.2-7-29.5-18.9-38.9L414 5.1z"></path><path fill="#df7e07" d="M85.9 233.7c-5.2 11.9-7.9 24.6-7.9 37.6 0 1 0 2 .1 2.9 11.8-2.8 23.2-8.3 33.1-16.5l36.9-30.6v-75.3L109.4 180l-23.5 53.7zm278.1-6.6 37 30.6c9.8 8.2 21.1 13.6 32.9 16.5 0-1 .1-1.9.1-2.9 0-13-2.6-25.7-7.8-37.6l-23.6-53.9-38.5-28v75.3z"></path><path fill="#f3ab7d" d="M388.7 152c-14-23-33.5-41-56.3-54H179.6c-22.8 13-42.3 31-56.3 54h265.4z"></path><path fill="#f89720" d="M256 97.9c-54.1 0-103 32-124.6 81.6l-27.2 62.3c-4.1 9.3-6.2 19.4-6.2 29.6 0 21.6 9.5 42.1 25.9 56.2C169 366.1 195 422.6 195 482c0 13.7 11.1 24.9 24.9 24.9h72.2c13.7 0 24.9-11.1 24.9-24.9 0-59.4 26-115.8 71.1-154.5 16.4-14.1 25.9-34.6 25.9-56.2 0-10.2-2.1-20.3-6.2-29.6l-27.2-62.3C359 129.9 310.1 97.9 256 97.9z"></path><path fill="#df7e07" d="M317 482.3c0-11.6 1-23.3 3-34.3H192c1.9 11 3 22.6 3 34.3 0 13.7 11.1 24.7 24.9 24.7h72.2c13.8 0 24.9-11 24.9-24.7z"></path><path fill="#514c43" d="M225.6 295.9c-6.9 12-19.8 20-34.6 20-22.1 0-40-17.9-40-40 0-7.3 1.9-14.1 5.4-20l69.2 40z"></path><path fill="#f7c9ab" d="M208.3 285.9c-3.4 6-9.9 10-17.3 10-11.1 0-20-8.9-20-20 0-3.6 1-7.1 2.7-10l34.6 20z"></path><path fill="#514c43" d="M286.4 295.9c6.9 12 19.8 20 34.6 20 22.1 0 40-17.9 40-40 0-7.3-1.9-14.1-5.4-20l-69.2 40z"></path><path fill="#f7c9ab" d="M303.7 285.9c3.4 6 9.9 10 17.3 10 11.1 0 20-8.9 20-20 0-3.6-1-7.1-2.7-10l-34.6 20z"></path><path fill="#faae52" d="m380.6 179.4-48.9 35.7c-35 25.6-55.8 66.4-55.8 109.8v111.9h-40V324.9c0-43.4-20.7-84.2-55.8-109.8l-48.9-35.7C153 129.9 201.9 97.9 256 97.9c54.1 0 103 32 124.6 81.5z"></path><path fill="#514c43" d="M298.3 406.9h-84.7c-18 0-32.7 14.6-32.7 32.7v22.1c0 11.2 9.1 20.2 20.2 20.2 3.1 0 6.2-.7 9-2.1l36.7-18.3c5.7-2.8 12.4-2.8 18.1 0l36.7 18.3c2.8 1.4 5.9 2.1 9 2.1 11.2 0 20.2-9.1 20.2-20.2v-22.1c.2-18.1-14.4-32.7-32.5-32.7z"></path><ellipse cx="220" cy="444.4" fill="#35322c" rx="10" ry="20" transform="rotate(-134.999 220 444.378)"></ellipse><ellipse cx="292" cy="444.4" fill="#35322c" rx="10" ry="20" transform="rotate(-45.001 291.996 444.38)"></ellipse><path fill="#272525" d="M457.5 156.9h-68.8v-10h68.8c24.5 0 44.5-20 44.5-44.5 0-13.7-6.2-26.5-17-34.9l-51.9-40.9 5.3 8.6c12.1 19.5 7.4 44.7-10.9 58.6-7.7 5.8-17.2 9.1-26.9 9.1H111.3c-9.6 0-19.2-3.2-26.9-9.1-18.3-13.9-22.9-39.1-10.9-58.6l5.3-8.6L27 67.4c-10.8 8.5-17 21.2-17 34.9 0 24.5 20 44.5 44.5 44.5H148v10H54.5c-30 0-54.5-24.4-54.5-54.5C0 85.6 7.6 70 20.8 59.6L94.9 1.2c1.9-1.5 4.6-1.4 6.4.2 1.8 1.6 2.2 4.3.9 6.4L82 40.4c-9.4 15.1-5.7 34.7 8.4 45.4 5.9 4.5 13.3 7 20.8 7h289.5c7.5 0 14.9-2.5 20.8-7 14.2-10.8 17.8-30.3 8.4-45.4L409.7 7.8c-1.3-2.1-.9-4.7.9-6.4 1.8-1.6 4.5-1.7 6.4-.2l74.1 58.4c13.2 10.4 20.8 26 20.8 42.8.1 30-24.3 54.5-54.4 54.5zM191 320.9c-24.8 0-45-20.2-45-45 0-7.9 2.1-15.7 6-22.5 1.4-2.4 4.4-3.2 6.8-1.8l69.3 40c1.1.7 2 1.8 2.3 3 .3 1.3.2 2.6-.5 3.8-7.9 13.9-22.9 22.5-38.9 22.5zm-32.5-58c-1.6 4.1-2.5 8.5-2.5 13 0 19.3 15.7 35 35 35 10.8 0 20.9-5 27.5-13.4l-60-34.6z"></path><path fill="#272525" d="M191 300.9c-13.8 0-25-11.2-25-25 0-4.4 1.2-8.7 3.4-12.5 1.4-2.4 4.4-3.2 6.8-1.8l34.6 20c2.4 1.4 3.2 4.4 1.8 6.8-4.4 7.7-12.7 12.5-21.6 12.5zm-14.7-27.8c-.2.9-.3 1.8-.3 2.7 0 8.3 6.7 15 15 15 3.6 0 7.1-1.3 9.7-3.6l-24.4-14.1zM321 320.9c-16 0-31-8.6-39-22.5-.7-1.1-.8-2.5-.5-3.8.3-1.3 1.2-2.4 2.3-3l69.3-40c2.4-1.4 5.4-.6 6.8 1.8 3.9 6.8 6 14.6 6 22.5.1 24.8-20.1 45-44.9 45zm-27.5-23.4c6.6 8.3 16.7 13.4 27.5 13.4 19.3 0 35-15.7 35-35 0-4.5-.9-8.9-2.5-13l-60 34.6z"></path><path fill="#272525" d="M321 300.9c-8.9 0-17.2-4.8-21.6-12.5-1.4-2.4-.6-5.4 1.8-6.8l34.6-20c2.4-1.4 5.4-.6 6.8 1.8 2.2 3.8 3.4 8.1 3.4 12.5 0 13.8-11.2 25-25 25zm-9.7-13.6c2.7 2.3 6.1 3.6 9.7 3.6 8.3 0 15-6.7 15-15 0-.9-.1-1.8-.3-2.7l-24.4 14.1zm-.5 199.6c-3.9 0-7.8-.9-11.3-2.7l-36.7-18.3c-4.3-2.1-9.4-2.1-13.6 0l-36.7 18.3c-3.5 1.7-7.4 2.7-11.3 2.7-13.9 0-25.2-11.3-25.2-25.2v-22.1c0-20.8 16.9-37.7 37.7-37.7h84.7c20.8 0 37.7 16.9 37.7 37.7v22.1c-.1 13.9-11.4 25.2-25.3 25.2zM256 454.3c3.9 0 7.7.9 11.3 2.6l36.7 18.3c2.1 1.1 4.5 1.6 6.8 1.6 8.4 0 15.2-6.8 15.2-15.2v-22.1c0-15.3-12.4-27.7-27.7-27.7h-84.7c-15.3 0-27.7 12.4-27.7 27.7v22.1c0 8.4 6.8 15.2 15.2 15.2 2.4 0 4.7-.6 6.8-1.6l36.7-18.3c3.7-1.7 7.5-2.6 11.4-2.6z"></path><path fill="#272525" d="M210.5 465.2c-3.2 0-6-1-8.1-3.1-6-6-3-18.2 7.1-28.3 10.1-10.1 22.2-13.1 28.3-7.1s3 18.2-7.1 28.3c-6.7 6.6-14.2 10.2-20.2 10.2zm6-24.4c-6.8 6.8-8 13.3-7.1 14.1.9.9 7.3-.2 14.1-7.1 6.8-6.8 8-13.3 7.1-14.1-.9-.8-7.3.3-14.1 7.1zm85 24.4c-6.1 0-13.6-3.6-20.1-10.2-10.1-10.1-13.1-22.2-7.1-28.3 6-6 18.2-3 28.3 7.1 10.1 10.1 13.1 22.2 7.1 28.3-2.1 2-4.9 3.1-8.2 3.1zm-19.1-31.7c-.5 0-.9.1-1.1.3-.9.9.2 7.3 7.1 14.1 6.8 6.8 13.3 7.9 14.1 7.1.9-.9-.2-7.3-7.1-14.1-5.4-5.6-10.7-7.4-13-7.4z"></path><path fill="#272525" d="M181.2 423.6c-11.1-36-32-67.9-60.6-92.3-17.6-15-27.6-36.9-27.6-60 0-10.9 2.2-21.6 6.6-31.6l27.2-62.3C149.2 126 199.9 92.8 256 92.8c56.1 0 106.8 33.2 129.2 84.6l27.2 62.3c4.4 10 6.6 20.7 6.6 31.6 0 23.1-10.1 45-27.6 60-28.6 24.5-49.5 56.4-60.6 92.3l-9.6-2.9c11.6-37.8 33.6-71.3 63.7-97 15.3-13.1 24.1-32.2 24.1-52.4 0-9.6-1.9-18.8-5.8-27.6L376 181.4c-20.8-47.7-68-78.6-120-78.6-52.1 0-99.2 30.8-120 78.6l-27.2 62.3c-3.8 8.8-5.8 18-5.8 27.6 0 20.2 8.8 39.3 24.1 52.4 30 25.7 52 59.2 63.7 97l-9.6 2.9zm110.9 88.3h-72.2c-16.5 0-29.9-13.4-29.9-29.9h10c0 11 8.9 19.9 19.9 19.9h72.2c11 0 19.9-8.9 19.9-19.9h10c0 16.5-13.4 29.9-29.9 29.9z"></path><path fill="#272525" d="M59.3 281.5c-20.7 0-41.3-7.4-57.4-21.9-1.1-1-1.7-2.5-1.7-4 .1-1.5.8-2.9 2-3.8l142.8-104 5.9 8.1L13.4 256.1c23.8 17.9 56.1 20.5 82.5 6l4.8 8.8c-12.9 7.1-27.2 10.6-41.4 10.6zM452.9 281.5c-14.4 0-28.9-3.6-42.1-11l4.9-8.7c26.5 14.9 59.1 12.4 83.1-5.7L361.3 155.9l5.9-8.1 142.8 104c1.2.9 2 2.3 2 3.8.1 1.5-.5 3-1.7 4-16.1 14.4-36.7 21.9-57.4 21.9z"></path><path fill="#272525" d="M241 386.9h-10V325c0-41.7-20.1-81.2-53.7-105.8l-48.9-35.7 5.9-8.1 48.9 35.7c36.2 26.4 57.8 69 57.8 113.8v62zm40 20h-10V325c0-44.8 21.6-87.4 57.8-113.8l48.9-35.7 5.9 8.1-48.9 35.7c-33.6 24.6-53.7 64.1-53.7 105.8v81.8z"></path></svg>