<svg xmlns="http://www.w3.org/2000/svg" viewBox="0 0 100 100" id="cancer"><g data-name="ICON 04"><path fill="#ffa726" d="M33.6 37.9a4.6 4.6 0 1 1 4.6 4.6A4.6 4.6 0 0 1 33.6 37.9zM57.21 37.9a4.6 4.6 0 1 1 4.59 4.6A4.6 4.6 0 0 1 57.21 37.9z"></path><path fill="#060e38" d="M83.69,66.21a51.89,51.89,0,0,0,2.34-9,12.33,12.33,0,0,0-2.14-9.06l7.34-6.74a9.42,9.42,0,0,0,2.82-8.92l-2-9.18A11.1,11.1,0,0,0,85.18,3.48a1,1,0,0,0-1,1c.17,4.48-.06,9.69-.64,11.28-3.32-4.1-5.71-5.72-7.52-5.09s-2,3.14-2,3.88a11.12,11.12,0,0,0,10.79,11.1l1.23,4.54a7.34,7.34,0,0,1-2.14,7.38l-6.31,5.8a12.84,12.84,0,0,0-3.19-.72c-3-.27-6-.48-9-.65a5.48,5.48,0,1,0-7.52-.32c-5.24-.15-10.5-.15-15.74,0a5.49,5.49,0,1,0-7.52.32c-3,.17-6,.38-9,.65a12.84,12.84,0,0,0-3.19.72l-6.31-5.8a7.34,7.34,0,0,1-2.14-7.38l1.23-4.54a11.12,11.12,0,0,0,10.79-11.1c0-.74-.15-3.24-2-3.88s-4.2,1-7.52,5.09c-.58-1.59-.81-6.8-.64-11.28a1,1,0,0,0-1-1A11.1,11.1,0,0,0,8,23.31L6,32.49a9.42,9.42,0,0,0,2.82,8.92l7.34,6.74A12.33,12.33,0,0,0,14,57.21a51.89,51.89,0,0,0,2.34,9A17.76,17.76,0,0,0,5.25,78.77a1,1,0,0,0,.18.86,1,1,0,0,0,.79.39h.27a9.85,9.85,0,0,0,7.37-3.3,9,9,0,0,1,5.45-3.24c.42.91.86,1.82,1.33,2.76a17.74,17.74,0,0,0-6.7,15,1,1,0,0,0,.42.76,1,1,0,0,0,.58.19.93.93,0,0,0,.29,0l.25-.07a9.84,9.84,0,0,0,6.11-5.29c.81-1.77,2.28-4,4.68-4.82a12.92,12.92,0,0,0,5,1.43h.09L28.46,86a7.83,7.83,0,0,0-2.63,5.85,4.65,4.65,0,0,0,4.64,4.65h2.62a1,1,0,0,0,1-1v-2a5.82,5.82,0,0,1,1.9-4.3l5.81-5.29c2.73.08,5.47.13,8.2.13s5.47,0,8.2-.13L64,89.22a5.82,5.82,0,0,1,1.9,4.3v2a1,1,0,0,0,1,1h2.62a4.65,4.65,0,0,0,4.64-4.65A7.83,7.83,0,0,0,71.54,86l-2.93-2.6h.09a12.92,12.92,0,0,0,5-1.43c2.4.81,3.87,3.05,4.68,4.82a9.84,9.84,0,0,0,6.11,5.29l.25.07a.93.93,0,0,0,.29,0,1,1,0,0,0,.58-.19,1,1,0,0,0,.42-.76,17.74,17.74,0,0,0-6.7-15c.47-.94.91-1.85,1.33-2.76a9,9,0,0,1,5.45,3.24A9.85,9.85,0,0,0,93.51,80h.27a1,1,0,0,0,.79-.39,1,1,0,0,0,.18-.86A17.76,17.76,0,0,0,83.69,66.21Zm1.49-42.5a9.13,9.13,0,0,1-9.12-9.12c0-1,.29-1.87.62-2a.44.44,0,0,1,.12,0c.4,0,1.87.36,5.27,4.58.86,1.08,1.68,1,2.09.83,1.58-.59,2.27-4.78,2-12.45a9.11,9.11,0,0,1-1,18.17Zm.11,15.37A9.35,9.35,0,0,0,88,29.71l-1.12-4.15a10.83,10.83,0,0,0,3.37-1.09l1.84,8.44a7.45,7.45,0,0,1-2.22,7L82.62,46.6a12.72,12.72,0,0,0-3-2.3ZM61.8,34.42a3.49,3.49,0,1,1-3.48,3.48A3.48,3.48,0,0,1,61.8,34.42Zm-23.6,0a3.49,3.49,0,1,1-3.49,3.48A3.48,3.48,0,0,1,38.2,34.42ZM5.71,14.59a9.12,9.12,0,0,1,8.08-9c-.22,7.67.47,11.86,2.05,12.45.41.15,1.23.25,2.09-.83,4-5,5.33-4.58,5.39-4.56.33.12.62,1,.62,2a9.12,9.12,0,1,1-18.23,0Zm4.41,25.34a7.45,7.45,0,0,1-2.22-7l1.84-8.44a10.75,10.75,0,0,0,3.37,1.09L12,29.71a9.36,9.36,0,0,0,2.71,9.37l5.68,5.22a12.88,12.88,0,0,0-3,2.3Zm2.24,35.46a7.76,7.76,0,0,1-4.79,2.55A15.7,15.7,0,0,1,17,68.08c.44,1.15.92,2.31,1.45,3.51A11,11,0,0,0,12.36,75.39ZM19.77,86a7.8,7.8,0,0,1-3.84,3.82A15.77,15.77,0,0,1,21.66,78a12.77,12.77,0,0,0,2.61,2.73A11.21,11.21,0,0,0,19.77,86Zm14.88,1.76a7.83,7.83,0,0,0-2.56,5.78v1H30.47a2.65,2.65,0,0,1-2.64-2.65,5.8,5.8,0,0,1,2-4.35l4.42-3.93c1.58.1,3.16.17,4.74.24Zm35.56-.22a5.8,5.8,0,0,1,2,4.35,2.65,2.65,0,0,1-2.64,2.65H67.91v-1a7.83,7.83,0,0,0-2.56-5.78l-4.3-3.91c1.58-.07,3.16-.14,4.74-.24ZM84.07,89.8A7.84,7.84,0,0,1,80.23,86a11.21,11.21,0,0,0-4.5-5.28A12.77,12.77,0,0,0,78.34,78,15.77,15.77,0,0,1,84.07,89.8ZM77.45,75.58a10.82,10.82,0,0,1-8.89,5.84c-3.19.22-6.4.38-9.61.49l0,0,0,0q-8.86.3-17.74,0l0,0,0,0c-3.21-.11-6.42-.27-9.61-.49a10.82,10.82,0,0,1-8.89-5.84C19,68.53,16.82,62.42,16,56.9a10.31,10.31,0,0,1,2.1-8,11,11,0,0,1,7.69-4.19Q37.82,43.6,50,43.59t24.26,1.09A11,11,0,0,1,82,48.87a10.31,10.31,0,0,1,2.1,8C83.18,62.42,81,68.53,77.45,75.58Zm10.19-.19a11,11,0,0,0-6.09-3.8c.53-1.2,1-2.36,1.45-3.51a15.7,15.7,0,0,1,9.43,9.86A7.76,7.76,0,0,1,87.64,75.39ZM36.07,37.9A2.13,2.13,0,1,1,38.2,40,2.12,2.12,0,0,1,36.07,37.9Zm23.61,0A2.13,2.13,0,1,1,61.8,40,2.12,2.12,0,0,1,59.68,37.9ZM70.23,51.34a1,1,0,0,1-1,.93h-.07c-6.36-.45-12.81-.68-19.17-.68s-12.81.23-19.17.68h-.07a1,1,0,0,1-.07-2c6.4-.46,12.9-.69,19.31-.69s12.91.23,19.31.69A1,1,0,0,1,70.23,51.34ZM66.71,57.1a1,1,0,0,1-1,.94h-.06c-5.19-.3-10.46-.45-15.65-.45s-10.46.15-15.65.45h-.06a1,1,0,0,1-.06-2c5.23-.31,10.54-.46,15.77-.46s10.54.15,15.77.46A1,1,0,0,1,66.71,57.1Zm-3.22,5.82a1,1,0,0,1-1,1h0c-4.13-.19-8.32-.28-12.45-.28s-8.32.09-12.45.28h0a1,1,0,0,1,0-2c4.16-.2,8.38-.29,12.54-.29s8.38.09,12.54.29A1,1,0,0,1,63.49,62.92Z"></path><path fill="#f75c4c" d="M85.18 23.71a9.13 9.13 0 0 1-9.12-9.12c0-1 .29-1.87.62-2a.44.44 0 0 1 .12 0c.4 0 1.87.36 5.27 4.58.86 1.08 1.68 1 2.09.83 1.58-.59 2.27-4.78 2-12.45a9.11 9.11 0 0 1-1 18.17zM85.29 39.08A9.35 9.35 0 0 0 88 29.71l-1.12-4.15a10.83 10.83 0 0 0 3.37-1.09l1.84 8.44a7.45 7.45 0 0 1-2.22 7L82.62 46.6a12.72 12.72 0 0 0-3-2.3zM5.71 14.59a9.12 9.12 0 0 1 8.08-9c-.22 7.67.47 11.86 2.05 12.45.41.15 1.23.25 2.09-.83 4-5 5.33-4.58 5.39-4.56.33.12.62 1 .62 2a9.12 9.12 0 1 1-18.23 0z"></path><path fill="#fff" d="M15.64,22.34a9.1,9.1,0,0,1-8.22-13A9.11,9.11,0,1,0,23,18.54,9.13,9.13,0,0,1,15.64,22.34Z" opacity=".6"></path><path fill="#060e38" d="M10.42,7.49a2,2,0,0,1,2.69,1.87c0,6.07.76,9.4,2.27,9.92a2,2,0,0,0,2.27-.83c4.33-5,5.77-4.59,5.83-4.57a1,1,0,0,1,.45.64c0-.94-.29-1.81-.61-1.92-.06,0-1.39-.41-5.39,4.56-.86,1.08-1.68,1-2.09.83-1.58-.59-2.27-4.78-2.05-12.45A9.11,9.11,0,0,0,7.34,9.41,10,10,0,0,1,10.42,7.49Z" opacity=".15"></path><path fill="#fff" d="M84.36,22.34a9.1,9.1,0,0,0,8.22-13A9.11,9.11,0,1,1,77,18.54,9.13,9.13,0,0,0,84.36,22.34Z" opacity=".6"></path><path fill="#060e38" d="M89.58,7.49a2,2,0,0,0-2.69,1.87c0,6.07-.76,9.4-2.27,9.92a2,2,0,0,1-2.27-.83c-4.33-5-5.77-4.59-5.83-4.57a1,1,0,0,0-.45.64c0-.94.29-1.81.61-1.92.06,0,1.38-.41,5.38,4.56.87,1.08,1.69,1,2.1.83,1.58-.59,2.27-4.78,2-12.45a9.11,9.11,0,0,1,6.45,3.87A10.06,10.06,0,0,0,89.58,7.49Z" opacity=".15"></path><path fill="#f75c4c" d="M10.12,39.93a7.45,7.45,0,0,1-2.22-7l1.84-8.44a10.75,10.75,0,0,0,3.37,1.09L12,29.71a9.36,9.36,0,0,0,2.71,9.37l5.68,5.22a12.88,12.88,0,0,0-3,2.3Z"></path><path fill="#fff" d="M10.89,39.93a7.44,7.44,0,0,1-2.23-7l1.78-8.12c-.24-.1-.47-.2-.7-.32L7.9,32.91a7.45,7.45,0,0,0,2.22,7l7.26,6.67.37-.36Z" opacity=".6"></path><path fill="#060e38" d="M11.58,29.44l-.26.93A9.43,9.43,0,0,0,14,39.75l5.51,5,.83-.5L14.7,39.09A9.41,9.41,0,0,1,12,29.71l1.12-4.15a10.75,10.75,0,0,1-3.37-1.09l-.19.88h0A3.5,3.5,0,0,1,11.58,29.44Z" opacity=".15"></path><path fill="#fff" d="M89.11,39.93a7.44,7.44,0,0,0,2.23-7l-1.78-8.12c.24-.1.47-.2.7-.32l1.84,8.44a7.45,7.45,0,0,1-2.22,7L82.62,46.6l-.37-.36Z" opacity=".6"></path><path fill="#060e38" d="M88.42,29.44l.26.93A9.43,9.43,0,0,1,86,39.75l-5.51,5-.83-.5,5.68-5.21A9.41,9.41,0,0,0,88,29.71l-1.12-4.15a10.75,10.75,0,0,0,3.37-1.09l.19.88h0A3.5,3.5,0,0,0,88.42,29.44Z" opacity=".15"></path><path fill="#ff9212" d="M12.36,75.39a7.76,7.76,0,0,1-4.79,2.55A15.7,15.7,0,0,1,17,68.08c.44,1.15.92,2.31,1.45,3.51A11,11,0,0,0,12.36,75.39Z"></path><path fill="#060e38" d="M17,68.08l-.46.18v0a2.58,2.58,0,0,1-1.2,3.27,12.7,12.7,0,0,0-3.85,3A7.68,7.68,0,0,1,8,76.85c-.14.36-.28.71-.41,1.09a7.76,7.76,0,0,0,4.79-2.55,11,11,0,0,1,6.09-3.8C17.92,70.39,17.44,69.23,17,68.08Z" opacity=".15"></path><path fill="#ff9212" d="M19.77,86a7.8,7.8,0,0,1-3.84,3.82A15.77,15.77,0,0,1,21.66,78a12.77,12.77,0,0,0,2.61,2.73A11.21,11.21,0,0,0,19.77,86Z"></path><path fill="#060e38" d="M21.66,78l-.67.59,0,.06a3,3,0,0,1-.14,3.9A12.91,12.91,0,0,0,18.65,86,7.8,7.8,0,0,1,16,89.13c0,.23,0,.44,0,.67A7.8,7.8,0,0,0,19.77,86a11.21,11.21,0,0,1,4.5-5.28A12.77,12.77,0,0,1,21.66,78Z" opacity=".15"></path><path fill="#ff9212" d="M34.65,87.74a7.83,7.83,0,0,0-2.56,5.78v1H30.47a2.65,2.65,0,0,1-2.64-2.65,5.8,5.8,0,0,1,2-4.35l4.42-3.93c1.58.1,3.16.17,4.74.24Z"></path><path fill="#060e38" d="M34.21,83.59l-.38.34h0a1.58,1.58,0,0,1,1,2.75L33.36,88a7.81,7.81,0,0,0-2.55,5.79v.7h1.28v-1a7.81,7.81,0,0,1,2.56-5.78L39,83.83C37.37,83.76,35.79,83.69,34.21,83.59Z" opacity=".15"></path><path fill="#ff9212" d="M70.21 87.52a5.8 5.8 0 0 1 2 4.35 2.65 2.65 0 0 1-2.64 2.65H67.91v-1a7.83 7.83 0 0 0-2.56-5.78l-4.3-3.91c1.58-.07 3.16-.14 4.74-.24zM84.07 89.8A7.84 7.84 0 0 1 80.23 86a11.21 11.21 0 0 0-4.5-5.28A12.77 12.77 0 0 0 78.34 78 15.77 15.77 0 0 1 84.07 89.8z"></path><path fill="#f75c4c" d="M84.05,56.9c-.87,5.52-3,11.63-6.6,18.68a10.82,10.82,0,0,1-8.89,5.84c-3.19.22-6.4.38-9.61.49l0,0,0,0q-8.86.3-17.74,0l0,0,0,0c-3.21-.11-6.42-.27-9.61-.49a10.62,10.62,0,0,1-3.5-.84,10.75,10.75,0,0,1-5.39-5C19,68.53,16.82,62.42,16,56.9a10.31,10.31,0,0,1,2.1-8,11,11,0,0,1,7.69-4.19Q37.82,43.6,50,43.59t24.26,1.09A11.1,11.1,0,0,1,82,48.87,10.31,10.31,0,0,1,84.05,56.9Z"></path><path fill="#fff" d="M24.48,76.63c-3.57-7-5.73-13.16-6.6-18.68a10.31,10.31,0,0,1,2.1-8,11,11,0,0,1,7.69-4.19q12.07-1.08,24.26-1.09t24.26,1.09a11.19,11.19,0,0,1,3.3.83,11.16,11.16,0,0,0-5.23-1.88Q62.18,43.6,50,43.59T25.74,44.68a11,11,0,0,0-7.69,4.19,10.31,10.31,0,0,0-2.1,8c.87,5.52,3,11.63,6.6,18.68a10.72,10.72,0,0,0,5.39,5A10.59,10.59,0,0,1,24.48,76.63Z" opacity=".6"></path><path fill="#ff9212" d="M87.64,75.39a11,11,0,0,0-6.09-3.8c.53-1.2,1-2.36,1.45-3.51a15.7,15.7,0,0,1,9.43,9.86A7.76,7.76,0,0,1,87.64,75.39Z"></path><path fill="#060e38" d="M83 68.08l.46.18v0a2.58 2.58 0 0 0 1.2 3.27 12.7 12.7 0 0 1 3.85 3A7.68 7.68 0 0 0 92 76.85c.14.36.28.71.41 1.09a7.76 7.76 0 0 1-4.79-2.55 11 11 0 0 0-6.09-3.8C82.08 70.39 82.56 69.23 83 68.08zM78.34 78l.67.59 0 .06a3 3 0 0 0 .14 3.9A12.91 12.91 0 0 1 81.35 86 7.8 7.8 0 0 0 84 89.13c0 .23 0 .44 0 .67A7.84 7.84 0 0 1 80.23 86a11.21 11.21 0 0 0-4.5-5.28A12.77 12.77 0 0 0 78.34 78zM65.79 83.59l.38.34h0a1.58 1.58 0 0 0-1 2.75L66.64 88a7.81 7.81 0 0 1 2.56 5.79v.7H67.91v-1a7.81 7.81 0 0 0-2.56-5.78l-4.3-3.91C62.63 83.76 64.21 83.69 65.79 83.59z" opacity=".15"></path><path fill="#ffa726" d="M70.23 51.34a1 1 0 0 1-1 .93h-.07c-6.36-.45-12.81-.68-19.17-.68s-12.81.23-19.17.68h-.07a1 1 0 0 1-.07-2c6.4-.46 12.9-.69 19.31-.69s12.91.23 19.31.69A1 1 0 0 1 70.23 51.34zM66.71 57.1a1 1 0 0 1-1 .94h-.06c-5.19-.3-10.46-.45-15.65-.45s-10.46.15-15.65.45h-.06a1 1 0 0 1-.06-2c5.23-.31 10.54-.46 15.77-.46s10.54.15 15.77.46A1 1 0 0 1 66.71 57.1zM63.49 62.92a1 1 0 0 1-1 1h0c-4.13-.19-8.32-.28-12.45-.28s-8.32.09-12.45.28h0a1 1 0 0 1 0-2c4.16-.2 8.38-.29 12.54-.29s8.38.09 12.54.29A1 1 0 0 1 63.49 62.92z"></path><path fill="#060e38" d="M84.05,56.9c-.87,5.52-3,11.63-6.6,18.68a10.82,10.82,0,0,1-8.89,5.84c-3.19.22-6.4.38-9.61.49l0,0,0,0q-8.86.3-17.74,0l0,0,0,0c-3.21-.11-6.42-.27-9.61-.49a10.62,10.62,0,0,1-3.5-.84c10.24.4,54.64.18,50.12-34.84A10.94,10.94,0,0,1,82,48.87,10.31,10.31,0,0,1,84.05,56.9Z" opacity=".15"></path></g></svg>