<svg xmlns="http://www.w3.org/2000/svg" viewBox="0 0 64 64" id="capricorn"><path fill="#515352" d="M7.69 20.37a17.39 17.39 0 0 0 4.51 4.42c3.26 2.2 6.12 4.71 8.56 7.54l.79-.41c.03-1.44-3.8-4.74-9.34-8.87-.46-.35-.91-.71-1.34-1.1C4.59 16.18 3.98 8.65 6.94.01a.356.356 0 0 0-.42.19C2.48 8.28 4.25 15.46 7.69 20.37z"></path><path fill="#676767" d="M10.87 21.96c.42.39.88.75 1.34 1.1 5.54 4.13 9.37 7.43 9.34 8.87l3.19-1.66c-3.09-2.37-2.34-10.3-2.42-13.74-.01-.41-.56-.52-.74-.16-.91 1.86-1.35 3.97-1.36 6.31 0 .35-.09.7-.3.99-.22.31-.53.51-.91.59-.22.04-.45.04-.67-.01-2.86-.6-5.11-2.65-5.86-4.35-.24-.55-.16-1.19.21-1.67.65-.85 1.12-1.96 1.36-2.99.07-.31-.33-.5-.53-.25-1.15 1.46-2.13 2.47-3.12 2.64-.53.09-1.05-.18-1.32-.65-1.2-2.09-1.86-4.11-1.03-5.98.14-.31.32-.59.55-.85 1.91-2.21 4.02-4.44 5.21-5.95.29-.37-.14-.87-.55-.63-1.52.87-3.45 2.37-5.4 3.89a.98.98 0 0 1-1.43-.23.959.959 0 0 1-.17-.54v-.03c.08-2.04.54-4.12.94-6.23.04-.22-.1-.37-.26-.42-2.96 8.64-2.35 16.17 3.93 21.95z"></path><path fill="#515352" d="M56.31 20.37a17.39 17.39 0 0 1-4.51 4.42c-3.26 2.2-6.12 4.71-8.56 7.54l-.79-.41c-.03-1.44 3.8-4.74 9.34-8.87.46-.35.91-.71 1.34-1.1C59.41 16.17 60.02 8.64 57.06 0c.15-.04.33.01.42.19 4.04 8.09 2.27 15.27-1.17 20.18z"></path><path fill="#676767" d="M53.13 21.96c-.42.39-.88.75-1.34 1.1-5.54 4.13-9.37 7.43-9.34 8.87l-3.19-1.66c3.09-2.37 2.34-10.3 2.42-13.74.01-.41.56-.52.74-.16.91 1.86 1.35 3.97 1.36 6.31 0 .35.09.7.3.99.22.31.53.51.91.59.22.04.45.04.67-.01 2.86-.6 5.11-2.65 5.86-4.35.24-.55.16-1.19-.21-1.67-.65-.85-1.12-1.96-1.36-2.99-.07-.31.33-.5.53-.25 1.15 1.46 2.13 2.47 3.12 2.64.53.09 1.05-.18 1.32-.65 1.21-2.08 1.87-4.11 1.04-5.97-.14-.31-.32-.59-.55-.85-1.91-2.21-4.02-4.44-5.21-5.95-.29-.37.14-.87.55-.63 1.52.87 3.45 2.37 5.4 3.89.45.36 1.12.25 1.43-.24.11-.16.16-.35.16-.54v-.03c-.08-2.04-.54-4.11-.94-6.23-.04-.22.1-.37.26-.42 2.96 8.64 2.35 16.17-3.93 21.95z"></path><path fill="#b88d62" d="M61 29.71c-3.29-.06-6.81.61-10.83 1.16-.69.1-1.35.41-1.84.9-1.14 1.15-1.51 2.3-3.54 2.57v-.01c.01-.33-.01-.65-.07-.97-.89-4.82-3.3-5.08-7.32-3.86-.91.28-1.86.41-2.81.41h-5.17a9.9 9.9 0 0 1-2.81-.41c-4.02-1.22-6.43-.96-7.32 3.86-.06.32-.08.65-.07.97v.01c-2.04-.27-2.4-1.43-3.54-2.57-.5-.5-1.15-.81-1.84-.9-4.03-.55-7.55-1.22-10.84-1.16-.76.01-1.24.81-.89 1.49 2.17 4.19 5.51 7.32 10.48 8.98 2.34.82 4.23.75 5.58 1.42.8.39 1.3 1.21 1.33 2.09l.1 3.08c.09 3.02.87 5.99 2.36 8.61.86 1.52 1.92 2.88 3.17 4.05l.02.02c1.29 1.21 2.38 2.31 3.04 3.57.31.6.93.97 1.61.97h4.41c.68 0 1.29-.38 1.61-.97.66-1.26 1.75-2.36 3.04-3.57l.02-.02c1.26-1.17 2.31-2.53 3.18-4.05 1.49-2.62 2.26-5.6 2.35-8.61l.1-3.08a2.4 2.4 0 0 1 1.33-2.09c1.36-.67 3.24-.6 5.58-1.42 4.97-1.66 8.3-4.8 10.48-8.98.34-.68-.14-1.47-.9-1.49z"></path><path fill="#e0ba65" d="M60.93 30.59c-.14.42-.31.84-.53 1.25-2.05.84-4.73.77-7.71 1.46-.69.16-1.33.5-1.83 1-2.26 2.27-1.77 4.24-6.54 6.05v-1.01c4.77-1.81 4.27-3.79 6.54-6.06.5-.5 1.14-.84 1.83-1 3.25-.73 6.14-.59 8.24-1.69z"></path><path fill="#f5cc6e" d="M60.4 31.84c-1.63 3.19-5.41 6.22-10.22 7.65-2.52.86-4.52.42-5.86 1.99v-1.13c4.77-1.81 4.27-3.79 6.54-6.05.5-.5 1.14-.84 1.83-1 2.98-.68 5.66-.62 7.71-1.46z"></path><path fill="#e0ba65" d="M3.07 30.59c.14.42.31.84.53 1.25 2.05.84 4.73.77 7.71 1.46.69.16 1.33.5 1.83 1 2.26 2.27 1.77 4.24 6.54 6.05v-1.01c-4.77-1.81-4.27-3.79-6.54-6.06-.5-.5-1.14-.84-1.83-1-3.25-.73-6.14-.59-8.24-1.69z"></path><path fill="#f5cc6e" d="M3.6 31.84c1.63 3.19 5.41 6.22 10.22 7.65 2.52.86 4.52.42 5.86 1.99v-1.13c-4.77-1.81-4.27-3.79-6.54-6.05-.5-.5-1.14-.84-1.83-1-2.98-.68-5.66-.62-7.71-1.46z"></path><path fill="#a07b53" d="M25.25 35.26c-1.45-.53-2.93.44-4.07 2.01-.3.41-.53.87-.68 1.35-.69 2.28-.59 6.22.13 9.4.69 3.17 2.38 3.58 3.68 2.28.3-.31.5-.7.57-1.13.29-1.65 1.15-4.17 2.01-6.71.06-.17.1-.34.12-.51.28-2.15.31-4.17-.43-5.51-.29-.54-.75-.97-1.33-1.18z"></path><path fill="#535453" d="M23.05 39.43c1.45 0 2.99 1.48 3.67 2.23.22.24.22.62 0 .86-.49.54-1.4 1.45-2.42 1.92a2.582 2.582 0 0 1-1.18.27c-.6 0-1.15-.2-1.6-.53-.03-.03-.07-.05-.1-.08-.73-.59-1.24-1.44-1.24-2.01.02-.93 1.4-2.66 2.87-2.66z"></path><path fill="#fcfdff" d="M20.46 42.06c0 .83.38 1.57.97 2.05.03.03.07.05.1.08a2.694 2.694 0 0 0 2.78.26c.88-.44 1.49-1.34 1.49-2.39 0-.2-.02-.41-.07-.6-1.7-.88-3.43-.9-5.19 0-.05.19-.08.39-.08.6z"></path><path fill="#7db4e1" d="M21.32 42.05a1.81 1.81 0 1 0 3.62 0c0-.39-.13-.75-.34-1.05-.97-.28-1.96-.28-2.95.01-.2.29-.33.65-.33 1.04z"></path><path fill="#333" d="M21.87 42.05c0 .51.42.93.93.93s.93-.42.93-.93-.42-.93-.93-.93a.916.916 0 0 0-.93.93z"></path><path fill="#fcfdff" d="M22.2 41.2a.37.37 0 1 0 .74 0c0-.2-.16-.37-.37-.37-.21.01-.37.17-.37.37z"></path><path fill="#a07b53" d="M38.75 35.26c1.45-.53 2.93.44 4.07 2.01.3.41.53.87.68 1.35.69 2.28.59 6.22-.13 9.4-.69 3.17-2.38 3.58-3.68 2.28-.3-.31-.5-.7-.57-1.13-.29-1.65-1.14-4.17-2.01-6.71-.06-.17-.1-.34-.12-.51-.28-2.15-.31-4.17.43-5.51.29-.54.75-.97 1.33-1.18z"></path><path fill="#535453" d="M40.95 39.43c-1.45 0-2.99 1.48-3.67 2.23-.22.24-.22.62 0 .86.49.54 1.4 1.45 2.42 1.92a2.582 2.582 0 0 0 1.18.27c.6 0 1.15-.2 1.6-.53.03-.03.07-.05.1-.08.73-.59 1.24-1.44 1.24-2.01-.02-.93-1.4-2.66-2.87-2.66z"></path><path fill="#fcfdff" d="M43.54 42.06c0 .83-.38 1.57-.97 2.05-.03.03-.07.05-.1.08a2.694 2.694 0 0 1-2.78.26 2.672 2.672 0 0 1-1.49-2.39c0-.2.02-.41.07-.6 1.7-.88 3.43-.9 5.19 0 .05.19.08.39.08.6z"></path><path fill="#7db4e1" d="M42.68 42.05a1.81 1.81 0 1 1-3.62 0c0-.39.13-.75.34-1.05.97-.28 1.96-.28 2.95.01.2.29.33.65.33 1.04z"></path><path fill="#333" d="M42.13 42.05c0 .51-.42.93-.93.93s-.93-.42-.93-.93.42-.93.93-.93c.52-.01.93.41.93.93z"></path><path fill="#fcfdff" d="M41.8 41.2a.37.37 0 1 1-.74 0c0-.2.16-.37.37-.37.21.01.37.17.37.37z"></path><path fill="#a07b53" d="M38.85 59.46c-1.29 1.21-2.38 2.31-3.04 3.57-.31.59-.93.97-1.6.97H29.8c-.68 0-1.29-.38-1.61-.97-.66-1.26-1.75-2.36-3.04-3.57a4.687 4.687 0 0 1 4.68-4.59h4.34c2.56 0 4.63 2.04 4.68 4.59z"></path><path fill="#333" d="M36.5 61.96c-.41.31-1.08.55-1.87.7-1.6.32-3.7.31-5.26.01-.82-.16-1.5-.4-1.86-.72h2.05l.58-.51h3.73l.58.51h2.05z"></path><path fill="#e56c67" d="M34.63 62.66c-1.6.32-3.7.31-5.26.01.26-.43.73-.71 1.27-.71.3 0 .59.09.83.25.33.22.75.22 1.08 0 .24-.16.52-.25.83-.25.52.01.99.28 1.25.7z"></path><path fill="#535453" d="M36.37 57.55c-.02.05-.04.1-.07.15-.07.13-.17.23-.27.34-.15.16-.3.32-.41.47-.08.11-.13.23-.15.36-.02.1-.02.2 0 .31.03.19.05.38.07.6.07.91-.66 1.68-1.57 1.68h-3.92c-.91 0-1.64-.77-1.57-1.68.02-.22.04-.41.07-.6a.81.81 0 0 0-.01-.31c-.03-.13-.08-.25-.15-.35-.11-.16-.26-.32-.41-.48-.1-.1-.2-.21-.27-.34-.03-.05-.05-.1-.07-.15-.14-.34-.08-.64.11-.84.14-.15.37-.19.56-.1.76.35 1.53.6 2.29.69.14.02.28.02.41.02H33c.14 0 .28 0 .41-.02.76-.09 1.53-.34 2.29-.69.19-.09.42-.05.56.1.19.2.26.49.11.84z"></path><path fill="#333" d="M36.37 57.55c-.02.05-.04.1-.07.15-.07.13-.17.23-.27.34-.15.16-.3.32-.41.47-.08.11-.13.23-.15.36-.38-.08-.66-.46-.66-.92 0-.52.37-.94.82-.94.33 0 .61.22.74.54zM29.2 57.94c0 .46-.28.83-.66.92-.03-.13-.08-.25-.15-.35-.11-.16-.26-.32-.41-.48-.1-.1-.2-.21-.27-.34-.03-.05-.05-.1-.07-.15.13-.32.41-.54.74-.54.45 0 .82.42.82.94z"></path></svg>