<svg xmlns="http://www.w3.org/2000/svg" data-name="Layer 1" viewBox="0 0 512 512" id="kalasha"><path fill="#ffae36" d="M330.618 136.234a74.619 74.619 0 1 1-149.236 0C181.382 94.917 256 7.124 256 7.124s74.618 87.793 74.618 129.11Z"></path><path fill="#ffa41f" d="M256 7.125s-6.19 7.286-15 18.636c21.787 28.073 59.618 81.052 59.618 110.473A74.788 74.788 0 0 1 241 209.532a74.663 74.663 0 0 0 89.618-73.298C330.618 94.917 256 7.124 256 7.124Z"></path><path fill="#63ea86" d="M179.165 212.933a78.809 78.809 0 0 0-18.821-36.166c-23.858-25.718-57.05-25.32-62.736-25.159 7.397-5.076 35.825-23.288 72.146-17.297 38.855 6.409 71.162 37.943 82.162 80.194"></path><path fill="#28e258" d="m221.735 213.853 30.181.652c-11-42.251-43.307-73.785-82.162-80.194a90.929 90.929 0 0 0-29.684.059c38.512 6.494 70.533 37.676 81.665 79.483Z"></path><path fill="#63ea86" d="M332.835 212.933a78.809 78.809 0 0 1 18.821-36.166c23.858-25.718 57.05-25.32 62.736-25.159-7.397-5.076-35.825-23.288-72.146-17.297-38.855 6.409-71.162 37.943-82.162 80.194"></path><path fill="#28e258" d="M359.363 133.16a108.39 108.39 0 0 1 21.327 8.451 3.783 3.783 0 0 1-1.31 7.112c-13.252 1.546-34.111 6.87-50.543 24.584a78.808 78.808 0 0 0-18.82 36.165l-48.825 1.056q-.585 1.972-1.108 3.977l72.751-1.572a78.809 78.809 0 0 1 18.821-36.166c23.858-25.718 57.05-25.32 62.736-25.159-6.188-4.246-27.098-17.675-55.029-18.448Z"></path><path fill="#3ce568" d="M238.171 239.249a107.068 107.068 0 0 1 18.036-123.175c5.096 4.708 25.711 24.825 29.016 58.312 3.366 34.114-13.59 58.222-17.645 63.683l-29.407 1.18Z"></path><path fill="#28e258" d="M285.223 174.386c-3.305-33.487-23.92-53.604-29.015-58.312a106.99 106.99 0 0 0-11.375 14.102 91.64 91.64 0 0 1 16.702 44.21c3.366 34.114-13.59 58.221-17.644 63.683l-6.19.249c.165.329.323.643.47.93l29.407-1.179c4.055-5.462 21.011-29.569 17.645-63.683Z"></path><path fill="#ffe966" d="M404.74 369.43a102.245 102.245 0 0 1-2.08 16.75q-.735 3.615-1.74 7.16a104.31 104.31 0 0 1-6.33 16.77c-.08.19-.17.38-.26.57-.45.96-.93 1.91-1.42 2.86a112.792 112.792 0 0 1-9.96 15.84 120.938 120.938 0 0 1-15.12 16.7l-15.36 14.11c-12.28 11.29-29.38 17.69-47.26 17.69h-98.43c-17.87 0-34.97-6.4-47.25-17.69l-15.36-14.11a120.808 120.808 0 0 1-15.76-17.55 113.788 113.788 0 0 1-7.76-12.11c-1.31-2.36-2.54-4.76-3.67-7.19a105.873 105.873 0 0 1-5.9-15.89c-.67-2.37-1.25-4.75-1.75-7.16a103.197 103.197 0 0 1-2.07-16.75c-.06-1.38-.09-2.77-.09-4.15a106.013 106.013 0 0 1 18.64-59.51c.03-.04.05-.08.08-.12 1.06-1.59 2.18-3.15 3.34-4.69a120.56 120.56 0 0 1 9.12-10.74l35.16-36.82 5.2-5.45.06-.06h154.46l.06.06 5.21 5.45 35.15 36.82a118.902 118.902 0 0 1 9.11 10.75c.51.66 1 1.33 1.47 1.99q1.305 1.8 2.52 3.65a105.58 105.58 0 0 1 17.99 62.82Z"></path><path fill="#ffe236" d="M386.75 306.61q-1.215-1.845-2.52-3.65c-.47-.66-.96-1.33-1.47-1.99a118.902 118.902 0 0 0-9.11-10.75L338.5 253.4l-5.21-5.45-.06-.06h-30l.06.06 5.21 5.45 35.15 36.82a118.902 118.902 0 0 1 9.11 10.75c.51.66 1 1.33 1.47 1.99q1.305 1.8 2.52 3.65a105.58 105.58 0 0 1 17.99 62.82 102.245 102.245 0 0 1-2.08 16.75q-.735 3.615-1.74 7.16a104.31 104.31 0 0 1-6.33 16.77c-.08.19-.17.38-.26.57-.45.96-.93 1.91-1.42 2.86a112.792 112.792 0 0 1-9.96 15.84 120.938 120.938 0 0 1-15.12 16.7l-15.36 14.11c-12.28 11.29-29.38 17.69-47.26 17.69h30c17.88 0 34.98-6.4 47.26-17.69l15.36-14.11a120.938 120.938 0 0 0 15.12-16.7 112.792 112.792 0 0 0 9.96-15.84c.49-.95.97-1.9 1.42-2.86.09-.19.18-.38.26-.57a104.31 104.31 0 0 0 6.33-16.77q1.005-3.54 1.74-7.16a102.245 102.245 0 0 0 2.08-16.75 105.58 105.58 0 0 0-17.99-62.82Z"></path><path fill="#ffe236" d="M338.5 253.4a7.49 7.49 0 0 1-3.06 1.74q-10.155 2.91-20.44 5.07l-6.5-6.81-5.07-6.23q12.615-2.22 25.05-5.66a21.95 21.95 0 0 0 2.9 4.16l1.99 2.26a.234.234 0 0 1-.08.02Z"></path><path fill="#ffe966" d="M332.36 217.67c-6.7 6.7-8.05 16.07-3.88 23.84a21.95 21.95 0 0 0 2.9 4.16l1.99 2.26a.234.234 0 0 1-.08.02 280.348 280.348 0 0 1-88.26 10.69 279.745 279.745 0 0 1-66.32-10.69.234.234 0 0 1-.08-.02c.66-.75 1.33-1.5 1.99-2.26a21.444 21.444 0 0 0 2.89-4.16c4.18-7.77 2.83-17.14-3.87-23.84l-9.85-9.86c-2.28-2.27-.42-5.82 3.05-5.82h166.31c3.48 0 5.34 3.55 3.06 5.82Z"></path><path fill="#ffe236" d="M342.21 207.81c2.28-2.27.42-5.82-3.06-5.82H316.84c3.48 0 5.34 3.55 3.06 5.82-10.238 10.248-19.573 24.239-16.47 39.36-29.282 5.42-58.875 11.002-58.795 11.451.006.035.196.011.396.02a280.348 280.348 0 0 0 88.26-10.691.234.234 0 0 0 .08-.02l-1.99-2.26a21.95 21.95 0 0 1-2.9-4.16c-4.17-7.77-2.82-17.14 3.88-23.84Z"></path><ellipse cx="256" cy="350.841" fill="#f66" rx="62.686" ry="62.848"></ellipse><path fill="#ff4e4e" d="M256 287.993a62.648 62.648 0 0 0-15 1.825 62.889 62.889 0 0 1 0 122.047 62.827 62.827 0 1 0 15-123.872Z"></path><path fill="#f66" d="M404.74 369.43a102.245 102.245 0 0 1-2.08 16.75q-.735 3.615-1.74 7.16a45.335 45.335 0 0 1-41.73-45.25 54.21 54.21 0 0 1 2.11-13.74c1.12-3.52 6.02-18.98 21.46-26.1a42.785 42.785 0 0 1 3.99-1.64 105.58 105.58 0 0 1 17.99 62.82Z"></path><path fill="#ff4e4e" d="M386.75 306.61a42.785 42.785 0 0 0-3.99 1.64 38.194 38.194 0 0 0-16.727 15.42 103.766 103.766 0 0 1 8.707 45.76 101.89 101.89 0 0 1-1.187 11.81 45.035 45.035 0 0 0 27.367 12.1q1.005-3.54 1.74-7.16a102.245 102.245 0 0 0 2.08-16.75 105.58 105.58 0 0 0-17.99-62.82Z"></path><path fill="#f66" d="M152.8 348.09a45.326 45.326 0 0 1-41.72 45.25c-.67-2.37-1.25-4.75-1.75-7.16a103.197 103.197 0 0 1-2.07-16.75c-.06-1.38-.09-2.77-.09-4.15a106.013 106.013 0 0 1 18.64-59.51c1.18.84 2.32 1.67 3.42 2.47 7.12 5.17 16.94 12.5 21.38 25.85a54.725 54.725 0 0 1 2.19 14Z"></path><path fill="#ff4e4e" d="M150.61 334.09c-4.44-13.35-14.26-20.68-21.38-25.85-1.1-.8-2.24-1.63-3.42-2.47a112.534 112.534 0 0 0-7.398 12.663 42.669 42.669 0 0 1 9.383 15.657 54.725 54.725 0 0 1 2.19 14 45.365 45.365 0 0 1-20.655 38.092c.5 2.409 1.08 4.788 1.75 7.158a45.326 45.326 0 0 0 41.72-45.25 54.725 54.725 0 0 0-2.19-14Z"></path><rect width="172.781" height="26.997" x="169.609" y="477.878" fill="#ff8e66" rx="13.498"></rect><path fill="#ff7c4e" d="M328.892 477.878h-30a13.499 13.499 0 0 1 0 26.997h30a13.499 13.499 0 0 0 0-26.997Z"></path><path fill="#313440" d="M278.31 335.598a7.5 7.5 0 1 0 0-15H256a7.5 7.5 0 0 0-7.5 7.5v14.868h-7.31v-14.868a7.5 7.5 0 0 0-15 0v22.368a7.5 7.5 0 0 0 7.5 7.5h14.81v7.369h-14.81a7.5 7.5 0 0 0 0 15h22.31a7.5 7.5 0 0 0 7.5-7.5v-14.87h7.312v14.87a7.5 7.5 0 0 0 15 0v-22.37a7.5 7.5 0 0 0-7.5-7.5h-14.812v-7.367Zm140.418-190.484c-10.627-7.53-39.464-24.415-77.614-18.592-1.29.198-2.556.423-3.81.662-3.196-18.363-15.87-43.732-37.815-75.626-18.657-27.117-37.003-48.762-37.774-49.67a7.5 7.5 0 0 0-11.43 0c-.771.908-19.117 22.553-37.774 49.67-21.944 31.893-34.618 57.262-37.815 75.625-1.254-.239-2.52-.463-3.811-.66-38.205-5.823-67.005 11.064-77.617 18.594a7.5 7.5 0 0 0 4.553 13.613c8.21-.229 36.58.722 57.025 22.763a68.338 68.338 0 0 1 10.605 15.164 11.04 11.04 0 0 0-3.35 4.422 10.681 10.681 0 0 0 2.38 11.661l9.859 9.86c5.183 5.186 5.45 12.312.663 17.733l-1.992 2.254c-.145.164-.271.34-.4.515l-39.69 41.567a128.39 128.39 0 0 0-9.68 11.403 105.458 105.458 0 0 0-3.56 4.995 113.606 113.606 0 0 0-20.011 63.838c0 1.48.032 2.985.096 4.454a111.415 111.415 0 0 0 2.22 17.97 112.119 112.119 0 0 0 1.855 7.592l.02.078.001.004a115.198 115.198 0 0 0 10.25 24.715c.472.842.946 1.683 1.443 2.53a126.33 126.33 0 0 0 23.54 28.98l15.36 14.109a71.236 71.236 0 0 0 14.46 10.234A20.967 20.967 0 0 0 183.107 512h145.785a20.967 20.967 0 0 0 14.193-36.43 71.185 71.185 0 0 0 14.459-10.231l15.361-14.112a126.307 126.307 0 0 0 23.41-28.766c.078-.122.151-.247.222-.374a113.64 113.64 0 0 0 3.038-5.483 91.162 91.162 0 0 0 1.511-3.041 114.079 114.079 0 0 0 7.049-18.55l.003-.012.022-.082a104.395 104.395 0 0 0 1.842-7.583 110.303 110.303 0 0 0 2.232-17.978c1.018-25.224-6.561-49.83-21.897-71.127a72.211 72.211 0 0 0-1.607-2.176 126.857 126.857 0 0 0-9.655-11.39l-39.694-41.572c-.126-.17-.248-.342-.39-.502l-1.994-2.258c-4.787-5.42-4.521-12.548.662-17.732l9.862-9.863a10.68 10.68 0 0 0 2.377-11.66 11.045 11.045 0 0 0-3.35-4.42 68.36 68.36 0 0 1 10.606-15.165c20.447-22.04 48.815-22.994 57.025-22.763a7.5 7.5 0 0 0 4.549-13.616Zm-193.93-84.953c12.088-17.575 24.295-33.097 31.203-41.625 6.89 8.507 19.056 23.975 31.13 41.524 20.93 30.42 33.375 55.295 35.618 70.997a107.33 107.33 0 0 0-34.875 20.138 102.2 102.2 0 0 0-26.577-41.005 7.502 7.502 0 0 0-10.503.318 117.202 117.202 0 0 0-25.547 41.638 107.088 107.088 0 0 0-36.003-21.103c1.677-11.986 9.76-33.372 35.555-70.882Zm96.254 182.913a272.083 272.083 0 0 1-75.725 7.694 272.42 272.42 0 0 1-54.38-7.688c4.733-10.317 2.674-22.41-6-31.085l-2.879-2.88H283.63c.025 0 .05.004.075.004.015 0 .03-.004.045-.004h46.182l-2.88 2.88c-8.672 8.674-10.73 20.764-6 31.08Zm-85.836-69.793a100.654 100.654 0 0 1 21.272-46.577 85.125 85.125 0 0 1 21.27 48.043 82.8 82.8 0 0 1-.37 19.368h-43.445a98.47 98.47 0 0 1 1.273-20.834Zm-69.373-1.989c-13.544-14.6-29.836-21.557-43.415-24.816a90.164 90.164 0 0 1 46.195-5.125c26.346 4.018 44.01 18.856 52.187 27.327-.132.697-.264 1.393-.383 2.101a113.466 113.466 0 0 0-1.495 23.336h-38.061a83.687 83.687 0 0 0-15.028-22.823Zm-49.168 212.993a96.334 96.334 0 0 1-1.922-15.554 89.613 89.613 0 0 1-.083-3.826 97.761 97.761 0 0 1 13.4-48.99 37.932 37.932 0 0 1-11.356 68.546c-.012-.059-.027-.117-.04-.176ZM328.892 497H183.107a5.999 5.999 0 0 1 0-11.997h23.587l.086.002h98.43a81.46 81.46 0 0 0 4.56-.144 7.532 7.532 0 0 0 1.442.142h17.68a5.999 5.999 0 1 1 0 11.997Zm33.864-56.818-15.362 14.112c-10.86 9.984-26.235 15.71-42.184 15.71h-96.887l-.039-.001h-1.59c-15.913-.02-31.248-5.743-42.09-15.711l-15.362-14.112a115.356 115.356 0 0 1-7.705-7.8c34.24 9.364 73.323 14.27 114.463 14.27 40.5 0 80.29-5.024 114.498-14.31q-3.657 4.063-7.742 7.842Zm21.165-124.26a97.018 97.018 0 0 1 13.325 52.827 95.293 95.293 0 0 1-1.935 15.56c-.01.05-.023.1-.034.15a37.924 37.924 0 0 1-11.356-68.537Zm-15.698-20.901c2.59 2.716 5.03 5.562 7.297 8.47a52.923 52.923 0 0 0 15.562 95.372q-1.57 4.156-3.542 8.257c-.41.875-.849 1.74-1.293 2.602-.43.834-.89 1.685-1.371 2.548-36.5 12.505-82.127 19.38-128.876 19.38-46.752 0-92.373-6.872-128.86-19.37a101.532 101.532 0 0 1-6.223-13.416 52.932 52.932 0 0 0 15.556-95.38c2.265-2.899 4.708-5.74 7.301-8.46l37.254-39.015a287.6 287.6 0 0 0 63.712 9.747q5.615.22 11.224.22a287.748 287.748 0 0 0 75.005-9.971Zm-22.065-123.729a83.686 83.686 0 0 0-15.03 22.823h-38.632a97.774 97.774 0 0 0 .19-20.84 98.173 98.173 0 0 0-.695-5.413 91.614 91.614 0 0 1 51.387-26.511 90.154 90.154 0 0 1 46.178 5.128c-13.577 3.263-29.86 10.22-43.398 24.813ZM256 280.118a70.348 70.348 0 1 0 70.187 70.348 70.346 70.346 0 0 0-70.187-70.348Zm0 125.696a55.348 55.348 0 1 1 55.187-55.348 55.33 55.33 0 0 1-55.187 55.348Z"></path></svg>