<svg xmlns="http://www.w3.org/2000/svg" viewBox="0 0 64 64" id="stylish-woman"><path fill="#7dd6f9" d="M56.5 64h-49v-4c0-6.1 4.9-11 11-11h27c6.1 0 11 4.9 11 11v4z"></path><path fill="#123751" d="M48.6 21.4v20.9c-12.3-9.1-23.4-9.2-33.1 0V21.8l1.4-.6s9-7.6 9.2-12.9c0 0 7.5 10.3 20.3 12.9.8.1 1.5.2 2.2.2z"></path><path fill="#42c0fb" d="M43.1 49.7c0 1.7-1 3.2-2.7 4.4-2.4 1.7-5.8 1.1-7.4-1.4-.5-.8-.7-1.4-.7-1.4h-.9s0 .1-.1.2c-1.2 3.4-5.5 4.6-8.2 2.3-1.4-1.1-2.2-2.5-2.2-4.1 0-3.8 5-6.8 11.1-6.8 6.2 0 11.1 3.1 11.1 6.8z"></path><path fill="#fdc87c" d="M32 52.4c-4.1 0-7.4-3.3-7.4-7.4v-7.4h14.8V45c0 4.1-3.3 7.4-7.4 7.4z"></path><ellipse cx="31.9" cy="25.5" fill="#fdd985" rx="14.4" ry="18.8"></ellipse><path fill="#123751" d="M48.6 16.6v4.9c-.7 0-1.4-.1-2.2-.2C33.5 18.6 26 8.3 26 8.3c-.2 5.2-9.2 12.9-9.2 12.9l-1.4.6v-5.2C15.4 7.4 22.9 0 32 0c4.6 0 8.7 1.9 11.7 4.9 3 2.9 4.9 7.1 4.9 11.7z"></path><path fill="#dce0e0" d="M41.9 10.1c.4-.2.6-.6.6-1 5.2 0 2 5.4-.6 1z"></path><path fill="#dce0e0" d="M40.7 10.1c.2.1.4.2.6.2s.4-.1.6-.2c2.5 4.5-3.8 4.5-1.2 0z"></path><path fill="#dce0e0" d="M40.7 10.1c-2.6 4.5-5.8-1-.6-1 0 .4.2.8.6 1zm0-2.1c-.4.2-.6.6-.6 1-5.2 0-2.1-5.5.6-1zm1.2 0c-.2-.1-.4-.2-.6-.2s-.4.1-.6.2c-2.6-4.5 3.7-4.5 1.2 0zm.6 1c0-.4-.2-.8-.6-1 2.6-4.5 5.8 1 .6 1z"></path><path fill="#379fc9" d="M42.5 9c0 .4-.2.8-.6 1-.2.1-.4.2-.6.2s-.4-.1-.6-.2v-.1c-.4-.2-.6-.6-.6-1s.2-.8.6-1v-.1c.2-.1.4-.2.6-.2s.4.1.6.2c.3.4.6.8.6 1.2z"></path><path fill="#dce0e0" d="M40.7 10.1s0-.1 0 0c0-.1 0 0 0 0zm0-2c0-.1 0-.1 0 0 0-.1 0-.1 0 0zM23.2 10.1c.4-.2.6-.6.6-1 5.2 0 2.1 5.4-.6 1z"></path><path fill="#dce0e0" d="M22.1 10.1c.2.1.4.2.6.2s.4-.1.6-.2c2.5 4.5-3.8 4.5-1.2 0zm-.1 0c-2.6 4.5-5.8-1-.6-1 .1.4.3.8.6 1zM22 8c-.4.2-.6.6-.6 1-5.1 0-2-5.5.6-1zm1.2 0c-.2-.1-.4-.2-.6-.2s-.4.1-.5.2c-2.6-4.5 3.7-4.5 1.1 0zm.6 1c0-.4-.2-.8-.6-1 2.7-4.5 5.8 1 .6 1z"></path><path fill="#379fc9" d="M23.8 9c0 .4-.2.8-.6 1-.2.1-.4.2-.6.2s-.4-.1-.6-.2v-.1c-.4-.2-.6-.6-.6-1s.2-.8.6-1v-.1c.2-.1.4-.2.6-.2s.4.1.6.2c.4.4.6.8.6 1.2z"></path><path fill="#dce0e0" d="M22 10.1c.1 0 .1-.1 0 0 .1-.1.1 0 0 0zm.1-2c0-.1 0-.1 0 0 0-.1 0-.1 0 0z"></path></svg>