<svg xmlns="http://www.w3.org/2000/svg" viewBox="0 0 64 64" id="balance"><path fill="#2c3e50" d="M41.5 59.5h-19a3 3 0 0 1 3-3h13a3 3 0 0 1 3 3zm-8-49h-3l-1-4 2.422-2 2.578 2z"></path><path fill="#e74c3c" d="M34.5 42.5v-2a1 1 0 0 0-1-1v-3h-3v3a1 1 0 0 0-1 1v2a1 1 0 0 0 1 1v2a1 1 0 0 0-1 1v2h5v-2a1 1 0 0 0-1-1v-2a1 1 0 0 0 1-1z"></path><path fill="#2c3e50" d="M30.5 43.5v2h3v-2h-3zm0-7h3v3h-3z"></path><path fill="#e74c3c" d="M38.5 56.5h-13v-3a2 2 0 0 1 2-2h9a2 2 0 0 1 2 2v3zm-2-5h-9v-1a2 2 0 0 1 2-2h5a2 2 0 0 1 2 2v1zm-3.039-15h-2.922a1 1 0 0 1-.999-1.038L30.5 10.5h3l.96 24.962a1 1 0 0 1-.999 1.038z"></path><path fill="#2c3e50" d="m30 12.5-5.008-.003c-.378 0-.708-.222-.888-.555l-.041-.076c-1.872-3.374-6.541-3.888-9.269-1.16L10 15.5h2l3.834-3.137c1.715-1.404 4.276-1.146 5.466.724.076.119.146.242.211.368.658 1.288 2.039 2.044 3.485 2.044h5.005M34 12.5l5.008-.003c.378 0 .708-.222.888-.555l.041-.076c1.872-3.374 6.541-3.888 9.269-1.16L54 15.5h-2l-3.834-3.137c-1.715-1.404-4.276-1.146-5.466.724a4.608 4.608 0 0 0-.211.368c-.658 1.288-2.039 2.044-3.485 2.044L36 15.5h-2"></path><path fill="#e0e2e2" d="M14.43 44.5H7.57a1.998 1.998 0 0 1-1.664-.891L4.5 41.5v-2h13v2l-1.406 2.109a2 2 0 0 1-1.664.891zm35.14 0h6.859c.669 0 1.293-.334 1.664-.891L59.5 41.5v-2h-13v2l1.406 2.109a2 2 0 0 0 1.664.891z"></path><path fill="#212e3a" d="M41.5 60h-19a.5.5 0 0 1-.5-.5c0-1.93 1.57-3.5 3.5-3.5h13c1.93 0 3.5 1.57 3.5 3.5a.5.5 0 0 1-.5.5zm-18.45-1h17.9a2.504 2.504 0 0 0-2.45-2h-13c-1.207 0-2.218.86-2.45 2z"></path><path fill="#212e3a" d="M38.5 57h-13a.5.5 0 0 1-.5-.5v-3c0-1.379 1.121-2.5 2.5-2.5h9c1.379 0 2.5 1.121 2.5 2.5v3a.5.5 0 0 1-.5.5zM26 56h12v-2.5c0-.827-.673-1.5-1.5-1.5h-9c-.827 0-1.5.673-1.5 1.5V56z"></path><path fill="#212e3a" d="M36.5 52h-9a.5.5 0 0 1-.5-.5v-1c0-1.379 1.121-2.5 2.5-2.5h5c1.379 0 2.5 1.121 2.5 2.5v1a.5.5 0 0 1-.5.5zM28 51h8v-.5c0-.827-.673-1.5-1.5-1.5h-5c-.827 0-1.5.673-1.5 1.5v.5zm5.5-40h-3a.5.5 0 0 1-.485-.379l-1-4a.501.501 0 0 1 .167-.507l2.422-2a.505.505 0 0 1 .625-.01l2.578 2a.502.502 0 0 1 .179.517l-1 4A.502.502 0 0 1 33.5 11zm-2.609-1h2.219l.826-3.305-2.004-1.555-1.87 1.544.829 3.316z"></path><path fill="#212e3a" d="M33.461 37h-2.922c-.411 0-.795-.163-1.08-.46a1.487 1.487 0 0 1-.419-1.097L30 10.48a.5.5 0 0 1 .5-.48h3a.5.5 0 0 1 .5.48l.96 24.962c.016.412-.134.802-.419 1.098-.285.297-.669.46-1.08.46zm-2.48-26-.941 24.481a.487.487 0 0 0 .14.365.492.492 0 0 0 .359.154h2.922a.494.494 0 0 0 .359-.153.49.49 0 0 0 .14-.366L33.019 11h-2.038z"></path><path fill="#212e3a" d="M34.5 49h-5a.5.5 0 0 1-.5-.5v-2c0-.652.418-1.208 1-1.414v-1.172c-.582-.206-1-.762-1-1.414v-2c0-.652.418-1.208 1-1.414V36.5a.5.5 0 0 1 .5-.5h3a.5.5 0 0 1 .5.5v2.586c.582.206 1 .762 1 1.414v2c0 .652-.418 1.208-1 1.414v1.172c.582.206 1 .762 1 1.414v2a.5.5 0 0 1-.5.5zM30 48h4v-1.5c0-.275-.225-.5-.5-.5a.5.5 0 0 1-.5-.5v-2a.5.5 0 0 1 .5-.5c.275 0 .5-.225.5-.5v-2c0-.275-.225-.5-.5-.5a.5.5 0 0 1-.5-.5V37h-2v2.5a.5.5 0 0 1-.5.5c-.275 0-.5.225-.5.5v2c0 .275.225.5.5.5a.5.5 0 0 1 .5.5v2a.5.5 0 0 1-.5.5c-.275 0-.5.225-.5.5V48zm0-32h-5.005c-1.669 0-3.212-.909-3.931-2.316a3.785 3.785 0 0 0-.188-.329 2.96 2.96 0 0 0-2.057-1.344 3.387 3.387 0 0 0-2.67.739l-3.834 3.137A.492.492 0 0 1 12 16h-2a.5.5 0 0 1-.354-.854l4.793-4.793a6.515 6.515 0 0 1 5.498-1.835c1.957.274 3.62 1.406 4.563 3.105l.051.095a.51.51 0 0 0 .44.278L30 12a.5.5 0 0 1 0 1l-5.009-.003a1.521 1.521 0 0 1-1.327-.816c-.827-1.493-2.223-2.441-3.866-2.672a5.53 5.53 0 0 0-4.651 1.552L11.207 15h.614l3.696-3.023a4.373 4.373 0 0 1 3.461-.953 3.95 3.95 0 0 1 2.743 1.796c.084.134.162.27.234.41.55 1.075 1.743 1.77 3.04 1.77H30a.5.5 0 0 1 0 1z"></path><path fill="#212e3a" d="M16.5 40h-11a.5.5 0 0 1-.49-.602l5-24A.5.5 0 0 1 10.5 15h1c.237 0 .441.166.489.398l5 24A.5.5 0 0 1 16.5 40zM6.115 39h9.77l-4.791-23h-.188L6.115 39z"></path><path fill="#212e3a" d="M14.43 45H7.57a2.495 2.495 0 0 1-2.08-1.113l-1.406-2.109A.502.502 0 0 1 4 41.5v-2a.5.5 0 0 1 .5-.5h13a.5.5 0 0 1 .5.5v2a.496.496 0 0 1-.084.277l-1.406 2.109A2.493 2.493 0 0 1 14.43 45zM5 41.349l1.322 1.983c.28.418.745.668 1.248.668h6.859c.503 0 .969-.25 1.248-.668L17 41.349V40H5v1.349zM54 16h-2a.497.497 0 0 1-.316-.113L47.85 12.75a3.368 3.368 0 0 0-2.67-.739 2.963 2.963 0 0 0-2.058 1.346 3.827 3.827 0 0 0-.186.326C42.217 15.091 40.674 16 39.005 16H34a.5.5 0 0 1 0-1h5.005c1.297 0 2.49-.695 3.04-1.771.071-.14.149-.275.232-.407a3.95 3.95 0 0 1 2.744-1.798 4.378 4.378 0 0 1 3.461.953L52.179 15h.614l-3.939-3.939a5.529 5.529 0 0 0-4.651-1.552c-1.644.23-3.039 1.179-3.827 2.6-.312.576-.82.889-1.366.889L34 13a.5.5 0 0 1 0-1l5.009-.003c.182 0 .349-.109.448-.293.985-1.779 2.648-2.911 4.605-3.186a6.517 6.517 0 0 1 5.498 1.835l4.793 4.793A.499.499 0 0 1 54 16z"></path><path fill="#212e3a" d="M58.5 40h-11a.5.5 0 0 1-.49-.602l5-24A.5.5 0 0 1 52.5 15h1c.237 0 .441.166.489.398l5 24A.5.5 0 0 1 58.5 40zm-10.385-1h9.77l-4.791-23h-.188l-4.791 23z"></path><path fill="#212e3a" d="M56.43 45h-6.86a2.495 2.495 0 0 1-2.08-1.113l-1.406-2.109A.502.502 0 0 1 46 41.5v-2a.5.5 0 0 1 .5-.5h13a.5.5 0 0 1 .5.5v2a.496.496 0 0 1-.084.277l-1.406 2.109A2.493 2.493 0 0 1 56.43 45zM47 41.349l1.322 1.983c.28.418.745.668 1.248.668h6.859c.503 0 .969-.25 1.248-.668L59 41.349V40H47v1.349zM31.922 11a.5.5 0 0 1-.5-.5v-3a.5.5 0 0 1 1 0v3a.5.5 0 0 1-.5.5zM33.5 40h-3a.5.5 0 0 1 0-1h3a.5.5 0 0 1 0 1zm0 4h-3a.5.5 0 0 1 0-1h3a.5.5 0 0 1 0 1zm0 2h-3a.5.5 0 0 1 0-1h3a.5.5 0 0 1 0 1z"></path></svg>