<svg xmlns="http://www.w3.org/2000/svg" viewBox="0 0 32 32" id="om"><path d="M29.735 6c.144 0 .265.126.259.27-.143 3.263-2.89 4.724-5.971 4.724-3.076 0-5.493-2.261-6.005-4.487-.047-.207.218-.335.362-.179 1.915 2.065 3.517 2.644 5.643 2.406 1.567-.175 2.729-1.619 2.944-2.526.028-.119.123-.208.246-.208h2.522z"></path><path d="m24.394 3.163 1.442 1.442a.558.558 0 0 1 0 .789l-1.442 1.442a.558.558 0 0 1-.789 0l-1.442-1.442a.558.558 0 0 1 0-.789l1.442-1.442a.56.56 0 0 1 .789 0zM30 21c0 5.084-2.009 8-5 8-2.267 0-4.351-1.708-4.989-4.697-.033-.154.168-.241.27-.121 1.894 2.224 4.084 2.553 4.719 2.319.906-.334 2-2.21 2-5.5 0-2.897-.841-5-2-5-1.643 0-3.745 2.28-6.801 2.945.507.874.801 1.828.801 2.827C19 26.298 16.383 29 12 29c-2.859 0-8.011-.918-9.991-7.856a.212.212 0 0 1 .052-.205l.937-.937C4.083 23.918 8.405 26 12 26c1.862 0 4-.48 4-4.227 0-2.056-2.864-3.967-5.998-4.171l-1.883-2.85c-.058-.088.011-.203.116-.204C12.818 14.501 14 13.176 14 11.346 14 9.729 13.301 8 10.967 8c-1.726 0-3.072 1.074-3.8 2.943-.031.079-.129.106-.191.048L5.198 9.352a.566.566 0 0 1-.147-.628C6.004 6.456 8.325 5 10.967 5 14.598 5 17 7.61 17 11.346c0 1.794-.839 3.32-2.253 4.409C19.006 17.337 21.185 13 25 13c2.417 0 5 2.102 5 8z"></path></svg>