<svg xmlns="http://www.w3.org/2000/svg" data-name="Layer 1" viewBox="0 0 512 512" id="priest"><circle cx="256" cy="266.862" r="13.883" fill="none" stroke="#000" stroke-linecap="round" stroke-linejoin="round" stroke-width="7"></circle><path fill="#f9beac" d="M428.697 367.667v-56.399a66 66 0 0 0-42.95-61.844l-67.69-25.23a33 33 0 0 1-21.475-30.922v-22.974h-81.164v22.974a33 33 0 0 1-21.474 30.922l-67.691 25.23a66 66 0 0 0-42.95 61.844v62.34l100.494 52.915L204.277 512h155.426a7 7 0 0 0 7-7V389.733Z"></path><circle cx="256" cy="266.862" r="13.883" fill="#f96263"></circle><path fill="#e58a7b" d="m373.703 374.698-66.566-27.241a10 10 0 0 1-6.212-9.349l.205-21.954a40 40 0 0 0-14.26-30.994l-15.653-13.157A5 5 0 0 0 263 275.83v69.841a35.346 35.346 0 0 0 18.918 31.297l84.785 44.505v-31.74zm-290.4-1.09 76.471 40.266 70.308-36.906A35.346 35.346 0 0 0 249 345.67v-69.84a5 5 0 0 0-8.217-3.828L225.13 285.16a40 40 0 0 0-14.26 30.994l.205 21.954a10 10 0 0 1-6.212 9.349l-66.566 27.241z"></path><path fill="#e58a7b" d="m84.18 374.069 61.117 57.983v13.993l91.785-48.077A35.346 35.346 0 0 0 256 366.67v-69.84a5 5 0 0 0-8.217-3.828L232.13 306.16a40 40 0 0 0-14.26 30.994l.205 21.954a10 10 0 0 1-6.212 9.349l-66.566 27.241v-21.63Z"></path><path fill="#e58a7b" d="m366.703 395.698-66.566-27.241a10 10 0 0 1-6.212-9.349l.205-21.954a40 40 0 0 0-14.26-30.994l-15.653-13.157A5 5 0 0 0 256 296.83v69.841a35.346 35.346 0 0 0 18.918 31.297l89.329 46.89c.814.427 1.634.816 2.456 1.187ZM366.703 381.069v8.664l35.653-12.69-35.653 4.026zM325.446 140.65h-.278V97.62h.278a21.515 21.515 0 0 1 21.515 21.515 21.515 21.515 0 0 1-21.515 21.515zm-138.892 0h.278V97.62h-.278a21.515 21.515 0 0 0-21.515 21.515 21.515 21.515 0 0 0 21.515 21.515zm50.027 76.003a69.169 69.169 0 0 0 52.838 0 69.153 69.153 0 0 0 11.908-6.352 32.94 32.94 0 0 1-4.745-17.029v-22.974h-81.164v22.974a32.923 32.923 0 0 1-1.145 8.536 69.047 69.047 0 0 0 22.308 14.845z"></path><path fill="#f9beac" d="M325.168 72.668v66.061a69.168 69.168 0 0 1-42.75 63.924 69.168 69.168 0 0 1-52.836 0h-.001a69.168 69.168 0 0 1-42.75-63.924V72.67A69.168 69.168 0 0 1 256 3.5a69.168 69.168 0 0 1 69.168 69.168Z"></path><path fill="#e58a7b" d="M267.413 134.699v9.12A11.413 11.413 0 0 1 256 155.232a11.413 11.413 0 0 1-11.413-11.413v-9.12a2 2 0 0 1 2-2h18.826a2 2 0 0 1 2 2Z"></path><path fill="#313848" d="M256 3.5a69.168 69.168 0 0 0-69.168 69.168V99.75l14.922-9.733a20.001 20.001 0 0 0 8.46-11.838l6.684-26.367a19.969 19.969 0 0 1 19.357-15.062h39.097a19.968 19.968 0 0 1 19.301 14.852l7.084 26.72a20 20 0 0 0 8.405 11.626l15.026 9.802V72.668A69.168 69.168 0 0 0 256 3.5Z"></path><path fill="#e88f37" d="M241.123 441.879a7.008 7.008 0 0 1-1.463-.154 11.54 11.54 0 0 1-.249-.056 7.029 7.029 0 1 1 1.712.21Zm29.772-.001a7.005 7.005 0 0 1-1.536-13.83c.051-.013.199-.045.25-.056a7 7 0 0 1 2.904 13.695l-.015.003a6.975 6.975 0 0 1-1.603.188Zm-56.888-12.751a6.966 6.966 0 0 1-4.293-1.475l-.08-.061a7 7 0 0 1 8.596-11.051l.08.062a7 7 0 0 1-4.303 12.525Zm84.045-.047a7 7 0 0 1-4.303-12.525l.08-.062a7 7 0 1 1 8.595 11.05l-.08.062a6.973 6.973 0 0 1-4.292 1.475Zm26.448-82.33a7 7 0 0 1-7-7v-.1a7 7 0 0 1 14 0v.1a7 7 0 0 1-7 7Zm0-30.2a7 7 0 0 1-7-7v-.1a7 7 0 1 1 14 0v.1a7 7 0 0 1-7 7Zm0-30.2a7 7 0 0 1-7-7v-.101a7 7 0 0 1 14 0v.1a7 7 0 0 1-7 7Zm0-30.2a7.025 7.025 0 1 1 7-7.1v.1a7 7 0 0 1-7 7Z"></path><path fill="#fdc857" d="M204.278 512V226.786a10 10 0 0 0-13.105-9.506l-38.98 12.73a10 10 0 0 0-6.896 9.506V505a7 7 0 0 0 7 7Z"></path><path fill="#e88f37" d="m191.173 217.28-4.823 1.575a9.92 9.92 0 0 1 3.928 7.93V512h14V226.786a10 10 0 0 0-13.105-9.506Z"></path><path fill="#e88f37" d="m204.278 371.561-58.981 24.137v50.347l58.981-30.894v-43.59z"></path><path fill="#e88f37" d="M204.278 390.513v-42.817l-58.981 24.137v34.417l14.477 7.624 44.504-23.361z"></path><path fill="#f9beac" d="M428.697 360.069v31.83c0 33.09-35.152 54.338-64.45 38.959l-89.329-46.89A35.346 35.346 0 0 1 256 352.67v-69.84a5 5 0 0 1 8.217-3.828l15.653 13.157a40 40 0 0 1 14.26 30.994l-.205 21.954a10 10 0 0 0 6.212 9.349l63.809 26.112a2 2 0 0 0 2.757-1.85v-11.65Z"></path><path fill="#f9beac" d="M83.303 360.069v31.83c0 33.09 35.152 54.338 64.45 38.959l89.329-46.89A35.346 35.346 0 0 0 256 352.67v-69.84a5 5 0 0 0-8.217-3.828L232.13 292.16a40 40 0 0 0-14.26 30.994l.205 21.954a10 10 0 0 1-6.212 9.349l-66.566 27.241v-21.63Z"></path><path fill="#e58a7b" d="M255.78 281.334a4.885 4.885 0 0 0-1.522-2.303 5.086 5.086 0 0 0-3.793-1.182 4.865 4.865 0 0 0-2.054.7 5.235 5.235 0 0 0-.628.454l-.297.25A4.892 4.892 0 0 1 249 282.83v90.924a35.313 35.313 0 0 0 7-21.083v-69.84a5.101 5.101 0 0 0-.22-1.497Z"></path><path fill="#24242b" d="m386.973 246.14-67.693-25.23a29.421 29.421 0 0 1-19.025-24.526 72.366 72.366 0 0 0 28.223-52.424 25.008 25.008 0 0 0 .19-49.625V72.668a72.668 72.668 0 0 0-145.337 0v21.667a25.008 25.008 0 0 0 .19 49.625 72.369 72.369 0 0 0 28.233 52.43 29.224 29.224 0 0 1-10.024 19.165 13.352 13.352 0 0 0-11.647-1.602l-38.978 12.729a13.466 13.466 0 0 0-9.305 12.838v.37l-16.773 6.25A69.817 69.817 0 0 0 79.8 311.27v62.34l.003.03v18.26a47.368 47.368 0 0 0 61.997 45.237V508.5a3.5 3.5 0 0 0 7 0v-74.26c.192-.098.388-.182.58-.283l51.4-26.981V508.5a3.5 3.5 0 0 0 7 0v-77.932a10.456 10.456 0 0 0 12.526-.049 71.127 71.127 0 0 0 10.223 4.825 10.491 10.491 0 0 0 8.034 9.72c.076.019.296.069.368.083a10.506 10.506 0 0 0 11.484-5.37c1.869.144 3.738.223 5.585.223 1.877 0 3.763-.08 5.637-.227a10.571 10.571 0 0 0 19.904-4.445 72.012 72.012 0 0 0 10.23-4.842 10.475 10.475 0 0 0 12.722-.118l.08-.061a10.481 10.481 0 0 0 3.229-12.35 72.947 72.947 0 0 0 7.334-8.925l11.024 5.787a291.468 291.468 0 0 1-74.317 90.964 3.5 3.5 0 0 0 4.414 5.434 298.5 298.5 0 0 0 76.1-93.145l30.262 15.885c.192.1.389.185.581.283v74.26a3.5 3.5 0 0 0 7 0v-71.362a47.506 47.506 0 0 0 61.997-45.239v-24.2c0-.01.003-.019.003-.029v-56.4a69.817 69.817 0 0 0-45.227-65.13Zm-58.305-144.715a17.998 17.998 0 0 1 0 35.42Zm-145.337 35.42a17.998 17.998 0 0 1 0-35.42ZM328 231.63l27.816 10.368a294.069 294.069 0 0 1-10.696 127.086L328 362.078v-12.44a10.508 10.508 0 0 0 7-9.888v-.1a10.508 10.508 0 0 0-7-9.888v-10.325a10.508 10.508 0 0 0 7-9.887v-.1a10.508 10.508 0 0 0-7-9.888v-10.325a10.508 10.508 0 0 0 7-9.887v-.101a10.508 10.508 0 0 0-7-9.887v-10.326a10.52 10.52 0 0 0 0-19.827Zm-3.505 74.32h.01a3.504 3.504 0 0 1 3.495 3.5v.1a3.5 3.5 0 0 1-7 0v-.1a3.504 3.504 0 0 1 3.495-3.5ZM321 279.35v-.101a3.504 3.504 0 0 1 3.495-3.5l.005.001h.005a3.504 3.504 0 0 1 3.495 3.499v.1a3.5 3.5 0 0 1-7 0Zm3.495 56.8h.01a3.504 3.504 0 0 1 3.495 3.5v.1a3.5 3.5 0 0 1-7 0v-.1a3.504 3.504 0 0 1 3.495-3.5Zm.005-90.55a3.461 3.461 0 0 1 3.5 3.55 3.5 3.5 0 1 1-3.5-3.55Zm-10.751-19.462c1.005.483 2.028.937 3.088 1.332L321 229.02v10.194a10.516 10.516 0 0 0 0 19.822v10.325a10.508 10.508 0 0 0-7 9.887v.1a10.508 10.508 0 0 0 7 9.888v10.325a10.508 10.508 0 0 0-7 9.887v.1a10.508 10.508 0 0 0 7 9.888v10.325a10.508 10.508 0 0 0-7 9.887v.101a10.508 10.508 0 0 0 7 9.887v9.576l-19.537-7.995a6.466 6.466 0 0 1-4.038-6.077l.205-21.955a43.364 43.364 0 0 0-15.508-33.706l-13.152-11.054a17.322 17.322 0 0 0-.037-23.134 69.698 69.698 0 0 0 44.816-29.154ZM190.33 72.668a65.668 65.668 0 0 1 131.337 0v20.62l-9.614-6.271a16.475 16.475 0 0 1-6.935-9.591l-7.083-26.72a23.49 23.49 0 0 0-22.684-17.456h-39.097a23.447 23.447 0 0 0-22.75 17.702l-6.683 26.367a16.454 16.454 0 0 1-6.98 9.766l-9.511 6.203Zm0 66.062v-37.084l13.335-8.698a23.436 23.436 0 0 0 9.941-13.908l6.684-26.367a16.453 16.453 0 0 1 15.964-12.423h39.097a16.486 16.486 0 0 1 15.919 12.248l7.083 26.72a23.458 23.458 0 0 0 9.876 13.662l13.438 8.766v37.083a65.435 65.435 0 0 1-27.033 53.113c-.066.045-.13.091-.192.14a66.105 66.105 0 0 1-13.361 7.437 65.249 65.249 0 0 1-50.164 0 66.097 66.097 0 0 1-13.362-7.438 3.428 3.428 0 0 0-.19-.138 65.436 65.436 0 0 1-27.035-53.114Zm27.815 62.03a73.379 73.379 0 0 0 10.098 5.128 72.205 72.205 0 0 0 55.512 0 73.373 73.373 0 0 0 10.108-5.134 36.385 36.385 0 0 0 13.88 21.76 63.1 63.1 0 0 1-99.964 4.55v-.274a13.472 13.472 0 0 0-1.398-6.005 36.133 36.133 0 0 0 11.764-20.025Zm48.234 66.1a10.315 10.315 0 0 1-3.44 7.698 8.426 8.426 0 0 0-5.528.567 8.63 8.63 0 0 0-1.412.85 8.64 8.64 0 0 0-1.411-.85 8.435 8.435 0 0 0-5.528-.567 10.373 10.373 0 1 1 17.319-7.698Zm-23.35 11.566-13.152 11.055a43.36 43.36 0 0 0-15.508 33.705l.205 21.955a6.467 6.467 0 0 1-4.037 6.077l-2.758 1.128v-115.1a69.727 69.727 0 0 0 35.306 18.024 17.322 17.322 0 0 0-.056 23.156Zm-94.23-38.907a6.482 6.482 0 0 1 4.477-6.182l38.978-12.73a6.506 6.506 0 0 1 8.525 6.183v128.42l-51.98 21.273Zm-2.674 188.24a40.5 40.5 0 0 1-59.323-35.86v-31.83l-.003-.03v-48.77a62.788 62.788 0 0 1 40.673-58.57l14.327-5.34v100.455c0 .01-.003.019-.003.029v31.617l-4.783 2.21a3.5 3.5 0 1 0 2.935 6.354l6.695-3.093.047-.022 66.498-27.213a13.434 13.434 0 0 0 8.386-12.62l-.205-21.955a36.383 36.383 0 0 1 13.012-28.282l15.652-13.157a1.5 1.5 0 0 1 2.466 1.148v69.842a31.76 31.76 0 0 1-17.045 28.197Zm70.648-3.484a3.5 3.5 0 0 1-4.912.615l-.079-.062a3.501 3.501 0 0 1 1.716-6.236 3.534 3.534 0 0 1 .441-.028 3.471 3.471 0 0 1 2.142.739l.08.061a3.498 3.498 0 0 1 .612 4.911Zm27.792 11.306c-.003.02-.01.037-.013.056a3.555 3.555 0 0 1-4.168 2.664l-.173-.04a3.497 3.497 0 0 1 .787-6.902 3.907 3.907 0 0 1 .894.107 3.437 3.437 0 0 1 2.19 1.505 3.493 3.493 0 0 1 .483 2.61Zm29.43 1.166a3.466 3.466 0 0 1-2.184 1.512c-.04.008-.079.015-.118.025a3.495 3.495 0 0 1-4.172-2.613 3.452 3.452 0 0 1 .442-2.638 3.536 3.536 0 0 1 2.22-1.584l.148-.032a3.5 3.5 0 0 1 3.663 5.33Zm27.604-14.294a3.48 3.48 0 0 1-1.325 2.328l-.079.062a3.5 3.5 0 1 1-4.299-5.526l.08-.061a3.48 3.48 0 0 1 2.143-.737 3.53 3.53 0 0 1 .44.027 3.501 3.501 0 0 1 3.04 3.907Zm1.49-9.683a10.484 10.484 0 0 0-11.41.96l-.08.062a10.487 10.487 0 0 0-3.733 10.849 65.004 65.004 0 0 1-8.373 3.962 10.508 10.508 0 0 0-10.61-4.035c-.076.016-.297.065-.325.073a10.52 10.52 0 0 0-7.916 8.176 65.85 65.85 0 0 1-9.205.004 10.471 10.471 0 0 0-1.477-3.65 10.68 10.68 0 0 0-14.476-3.244 10.48 10.48 0 0 0-2.917 2.69 64.051 64.051 0 0 1-8.371-3.953 10.483 10.483 0 0 0-3.739-10.825l-.078-.06a10.497 10.497 0 0 0-12.6-.222v-10.255l30.929-16.236A38.744 38.744 0 0 0 256 368.784a38.744 38.744 0 0 0 17.291 18.282l35.612 18.694a66.1 66.1 0 0 1-5.814 7.01Zm122.11-52.73c0 .01-.003.018-.003.028V391.9a40.501 40.501 0 0 1-59.324 35.86l-33.39-17.526c-.009-.005-.016-.012-.026-.017-.007-.004-.015-.005-.022-.009l-55.89-29.338a31.76 31.76 0 0 1-17.045-28.197V282.83a1.5 1.5 0 0 1 2.465-1.147l15.653 13.156a36.383 36.383 0 0 1 13.012 28.282l-.205 21.955a13.433 13.433 0 0 0 8.387 12.62l24.302 9.946.056.023 42.134 17.242 6.292 2.845a3.5 3.5 0 1 0 2.884-6.379l-4.277-1.934v-12.37a3.5 3.5 0 0 0-7 0v9.415l-11.584-4.74a300.98 300.98 0 0 0 11.613-126.982l21.295 7.937a62.788 62.788 0 0 1 40.673 58.57ZM256 87.452a15.01 15.01 0 0 0 14.992-14.992V59.335a3.5 3.5 0 0 0-7 0v13.126a7.992 7.992 0 0 1-15.984 0V59.335a3.5 3.5 0 0 0-7 0v13.126A15.01 15.01 0 0 0 256 87.453Zm30.117 19.131a3.5 3.5 0 0 0-3.5 3.5v7.363a3.5 3.5 0 0 0 7 0v-7.363a3.5 3.5 0 0 0-3.5-3.5Zm-10.24-3.44a26.857 26.857 0 0 1 9.558-2.015 27.158 27.158 0 0 1 10.924 2.016 3.5 3.5 0 1 0 2.657-6.477 34.343 34.343 0 0 0-13.758-2.537 33.819 33.819 0 0 0-12.041 2.538 3.5 3.5 0 1 0 2.66 6.475Zm-39.752 0a3.5 3.5 0 1 0 2.656-6.476 33.92 33.92 0 0 0-25.799.001 3.5 3.5 0 1 0 2.66 6.475 26.857 26.857 0 0 1 9.558-2.015 27.144 27.144 0 0 1 10.925 2.016Zm-10.242 3.44a3.5 3.5 0 0 0-3.5 3.5v7.363a3.5 3.5 0 0 0 7 0v-7.363a3.5 3.5 0 0 0-3.5-3.5Zm40.36 65.996a26.923 26.923 0 0 1-20.485 0 3.5 3.5 0 0 0-2.656 6.477 33.86 33.86 0 0 0 12.038 2.537q.417.01.836.01a34.3 34.3 0 0 0 12.922-2.547 3.5 3.5 0 0 0-2.656-6.477Zm-21.656-41.422a3.5 3.5 0 0 0-3.5 3.5v9.161a14.913 14.913 0 0 0 29.826 0v-9.16a3.5 3.5 0 1 0-7 0v9.16a7.913 7.913 0 0 1-15.826 0v-9.16a3.5 3.5 0 0 0-3.5-3.5ZM259.5 99a3.5 3.5 0 1 0-3.5 3.5 3.5 3.5 0 0 0 3.5-3.5Z"></path></svg>