<svg xmlns="http://www.w3.org/2000/svg" viewBox="0 0 512 512" id="scorpion"><path fill="#ff5722" d="M371.62 423.29s-28.91 20.59-9.74 53.75c0 0 6.69-37.73 37.12-42.29zM111.51 423.29s28.9 20.59 9.73 53.75c0 0-6.69-37.73-37.12-42.29z"></path><path fill="#ffdc00" d="M170.42 396.82s-.84 49.9 50.28 52.94c0 0-18.57-32.86-2.44-49.29zM314.41 396.82s.84 49.9-50.28 52.94c0 0 18.56-32.86 2.44-49.29z"></path><path fill="#ff5722" d="M376.72 437.89a6.08 6.08 0 01-4.84-9.76c1-1.37 25.12-34.17 0-66.71-26.16-33.91-75.4-34.69-75.89-34.69a6.09 6.09 0 010-12.17h0c2.26 0 55.62.75 85.45 39.43 12.78 16.57 16.84 36 11.72 56.06a77.06 77.06 0 01-11.69 25.44A6.06 6.06 0 01376.72 437.89zM365.32 288.34a4.87 4.87 0 01-4.75-3.86c-4.26-19.9-18.68-32.16-42.87-36.45a122.75 122.75 0 00-37-.34A4.87 4.87 0 11279 238.1a130.65 130.65 0 0140.13.3c28.22 4.93 45.83 20.16 50.94 44a4.87 4.87 0 01-3.74 5.78A5.23 5.23 0 01365.32 288.34zM365.32 326.17a4.87 4.87 0 01-4.75-3.86c-4.26-19.9-18.68-32.16-42.87-36.45a122.75 122.75 0 00-37-.34 4.87 4.87 0 11-1.65-9.59 130.65 130.65 0 0140.13.3c28.22 4.92 45.83 20.16 50.94 44a4.87 4.87 0 01-3.74 5.78A5.23 5.23 0 01365.32 326.17z"></path><path fill="#ffdc00" d="M360.66,431.81s5.48-40.37,32.86-35S427.3,464.87,380.14,481c0,0,6.39-16.43-2.74-26.78S359.75,444.08,360.66,431.81Z"></path><path fill="#ff5722" d="M106.39 437.89a6.08 6.08 0 01-4.84-2.4 76.92 76.92 0 01-11.68-25.44C84.75 390 88.8 370.56 101.58 354c29.84-38.68 83.19-39.42 85.45-39.43h0a6.09 6.09 0 010 12.17h0c-.49 0-49.73.78-75.88 34.69-25.09 32.54-1 65.34 0 66.72a6.09 6.09 0 01-4.86 9.75zM117.8 288.34a5.05 5.05 0 01-1-.11 4.86 4.86 0 01-3.74-5.78c5.1-23.89 22.72-39.12 50.93-44a130.63 130.63 0 0140.13-.3 4.87 4.87 0 11-1.65 9.59 123.16 123.16 0 00-37 .34c-24.18 4.29-38.61 16.55-42.86 36.45A4.88 4.88 0 01117.8 288.34zM117.8 326.17a5.05 5.05 0 01-1-.11 4.86 4.86 0 01-3.74-5.78c5.1-23.89 22.72-39.13 50.93-44a130.63 130.63 0 0140.13-.3 4.87 4.87 0 11-1.65 9.59 123.16 123.16 0 00-37 .34c-24.18 4.29-38.61 16.55-42.86 36.45A4.88 4.88 0 01117.8 326.17z"></path><path fill="#ffdc00" d="M122.46,431.81s-5.48-40.37-32.86-35S55.82,464.87,103,481c0,0-6.39-16.43,2.74-26.78S123.37,444.08,122.46,431.81Z"></path><rect width="8.31" height="39.71" x="47.85" y="246.19" fill="#ffdc00" rx="3.41"></rect><rect width="8.31" height="39.71" x="47.85" y="246.19" fill="#ffdc00" rx="3.41" transform="rotate(90 52.01 266.04)"></rect><rect width="11.42" height="54.54" x="136.33" y="91.8" fill="#ffdc00" rx="3.41"></rect><rect width="11.42" height="54.54" x="136.33" y="91.8" fill="#ffdc00" rx="3.41" transform="rotate(90 142.035 119.075)"></rect><rect width="10.59" height="50.61" x="409.55" y="249.78" fill="#ffdc00" rx="2.84"></rect><rect width="10.59" height="50.61" x="409.55" y="249.78" fill="#ffdc00" rx="2.84" transform="rotate(90 414.845 275.085)"></rect><path fill="#a4c400" d="M26.79,383.42a.79.79,0,0,1-1-.69c-.47-6.15-1.24-30.55,17.12-48.86a59.55,59.55,0,0,1,29.28-15.76.79.79,0,0,1,1,.73,64.08,64.08,0,0,1-8.38,35.29C52.81,374.73,32.92,381.63,26.79,383.42Z"></path><path d="M22.48,394.45h-.09a.51.51,0,0,1-.4-.59c1.9-10.06,10.05-25.07,24.23-44.63C56.77,334.68,66.89,322.93,67,322.81a.51.51,0,0,1,.71-.05.49.49,0,0,1,0,.7c-.4.47-40.31,46.91-44.78,70.58A.49.49,0,0,1,22.48,394.45Z"></path><path fill="#a4c400" d="M122.46,223.7a.78.78,0,0,0,1-.7c.42-6.15,1-30.56-17.56-48.7a59.55,59.55,0,0,0-29.42-15.49.79.79,0,0,0-1,.74,64,64,0,0,0,8.69,35.21C96.36,215.24,116.32,222,122.46,223.7Z"></path><path d="M126.86,234.69a.51.51,0,0,1-.49-.41c-4.68-23.62-45-69.7-45.41-70.16a.5.5,0,0,1,0-.71.51.51,0,0,1,.71.05c.1.12,10.33,11.77,21,26.22,14.36,19.43,22.65,34.37,24.64,44.41a.51.51,0,0,1-.4.59Z"></path><path fill="#a4c400" d="M361.92,215.54a.75.75,0,0,0,1,.61c5.58-2,27.31-10.71,36.29-33.91a57.1,57.1,0,0,0,2.51-31.8.75.75,0,0,0-1-.56,61.48,61.48,0,0,0-27.76,21C359.5,189.33,361.12,209.47,361.92,215.54Z"></path><path d="M354.34,223.87a.46.46,0,0,1-.39-.21.47.47,0,0,1,.12-.67c19.06-13.07,44.41-66.06,44.67-66.59a.47.47,0,0,1,.64-.23.48.48,0,0,1,.23.64c-.26.54-25.73,53.76-45,67A.57.57,0,0,1,354.34,223.87Z"></path><path fill="#a4c400" d="M437.23,405.83a.64.64,0,0,1-.61-.79c1.18-4.9,6.74-24,25.62-33.6a48.6,48.6,0,0,1,26.7-4.84.64.64,0,0,1,.56.81,52.22,52.22,0,0,1-15.41,25.27C459.61,405.65,442.43,406,437.23,405.83Z"></path><path d="M431.22,413.32a.45.45,0,0,1-.19-.05.42.42,0,0,1-.17-.56c9.55-17.43,52.43-43.51,52.87-43.77a.41.41,0,0,1,.56.13.42.42,0,0,1-.14.57c-.43.26-43.13,26.23-52.57,43.47A.41.41,0,0,1,431.22,413.32Z"></path><circle cx="376.72" cy="66.31" r="35.31" fill="#00bcd4"></circle><path fill="#3f51b5" d="M400.4,71.12s-6.42,33.47,22.47,41.73,39.89-10.09,47.23-4.13,3.67,17.89,8.71,17.43,10.09-16.05,0-45.4S412.78,39,400.4,71.12Z"></path><circle cx="315.15" cy="86.25" r="35.31" fill="#3f51b5"></circle><circle cx="269.3" cy="136.54" r="41.09" fill="#00bcd4"></circle><ellipse cx="252.84" cy="196.49" fill="#3f51b5" rx="43.22" ry="37.61"></ellipse><path fill="#00bcd4" d="M185.21,275.38c-3-37.25,18-66.8,44.7-72.31,18.92-3.9,35.76,5.27,38.56,6.85,22,12.41,32.46,38.36,25.41,65.46C293.88,275.38,208,281.63,185.21,275.38Z"></path><ellipse cx="242.67" cy="276.77" fill="#3f51b5" rx="64.34" ry="33.68"></ellipse><ellipse cx="242.41" cy="324.55" fill="#00bcd4" rx="88.46" ry="49.47"></ellipse><ellipse cx="240.49" cy="359.99" fill="#3f51b5" rx="98.46" ry="59.65"></ellipse><circle cx="214.21" cy="375.25" r="14.38"></circle><circle cx="266.77" cy="375.25" r="14.38"></circle><path fill="#fff" d="M215.09 364.43c-7.78 0-6.62 12.06 1.12 12.06S222.84 364.43 215.09 364.43zM264.39 363.22c-7.78 0-6.63 12 1.12 12S272.14 363.22 264.39 363.22zM88.51 462a3 3 0 01-2.34-1.1c-13.69-16.47-5.31-43.89-5-45.05A3 3 0 0187 417.69c-.09.28-7.74 25.44 3.82 39.34a3 3 0 01-.4 4.28A3 3 0 0188.51 462zM149.85 363a3.51 3.51 0 01-.55 0 3 3 0 01-2.44-3.53C146.94 359 149 348 158.38 336c8.57-10.92 25.14-24.76 55.45-28.61a3 3 0 11.76 6c-22.55 2.86-39.78 11.64-51.23 26.08-8.54 10.78-10.5 20.89-10.52 21A3 3 0 01149.85 363zM322.58 354.88a3 3 0 01-3-2.4c-5.32-24.69-34.08-34.16-34.37-34.25a3 3 0 011.85-5.8c1.32.42 32.4 10.59 38.47 38.77a3 3 0 01-2.33 3.61A2.88 2.88 0 01322.58 354.88zM407.88 422.68a3 3 0 01-2.76-1.77c-2.42-5.25-7.15-8.61-14.05-10a35.32 35.32 0 00-10.37-.47 3 3 0 01-.82-6 41.2 41.2 0 0112.2.5c8.89 1.73 15.31 6.39 18.56 13.45a3 3 0 01-1.49 4A3 3 0 01407.88 422.68zM279.85 290.78a3 3 0 01-1.05-.19c-31.77-11.68-68-2.14-68.39-2a3 3 0 01-1.58-5.88c1.55-.42 38.45-10.15 72.07 2.21a3 3 0 01-1 5.9zM212.23 259.14a3 3 0 01-.84-6c1.53-.44 37.61-10.55 58.81.21a3 3 0 01-2.75 5.43c-19.1-9.7-54 .11-54.38.21A3.1 3.1 0 01212.23 259.14zM262.74 219.58a3 3 0 01-1.46-.37c-14.78-8.09-41.17.14-41.43.23a3 3 0 01-1.85-5.8c1.18-.38 29.13-9.11 46.2.23a3 3 0 01-1.46 5.71zM224.4 185.2a3 3 0 01-2.57-4.67c.52-.82 12.92-19.92 37.59-17.22a3 3 0 01-.66 6.05c-20.95-2.3-31.68 14.25-31.79 14.42A3 3 0 01224.4 185.2zM238.7 135.29a2.82 2.82 0 01-.81-.11 3 3 0 01-2.12-3.73c.09-.33 9.44-33.17 39-28.06a3 3 0 01-1 6c-10-1.73-18.45 1.6-25 9.9a44.41 44.41 0 00-7.17 13.77A3 3 0 01238.7 135.29zM290.12 84.78a3 3 0 01-1-.16 3 3 0 01-1.91-3.85c.1-.3 10.37-29.63 41-22.38a3 3 0 11-1.4 5.92c-25.19-6-33.5 17.41-33.84 18.41A3.07 3.07 0 01290.12 84.78zM354.94 55.21a3 3 0 01-2.1-5.25c.48-.45 11.94-11.13 25.23-10.39 6.69.38 12.6 3.55 17.54 9.42A3 3 0 11391 52.91c-3.81-4.54-8.25-7-13.2-7.27C367.12 45 357.12 54.29 357 54.38A3 3 0 01354.94 55.21zM439.61 111.94c-9.65 0-17.24-2.87-22.57-8.55-9.84-10.46-8.11-26.49-8-27.17a3 3 0 016 .69h0c0 .14-1.46 14 6.45 22.34 4.54 4.82 11.46 7 20.55 6.53a3 3 0 01.33 6.08C441.44 111.91 440.52 111.94 439.61 111.94zM288.76 106.13c-6.22 0-5.3 9.64.9 9.64S295 106.13 288.76 106.13zM336.54 67.18c-6.23 0-5.31 9.65.89 9.65S342.74 67.18 336.54 67.18zM392.83 61.1c-6.23 0-5.31 9.64.89 9.64S399 61.1 392.83 61.1zM453.68 97.31c-6.22 0-5.3 9.64.9 9.64S459.88 97.31 453.68 97.31zM275.38 170.64c-6.23 0-5.31 9.64.89 9.64S281.57 170.64 275.38 170.64zM276.29 219.93c-6.23 0-5.3 9.64.89 9.64S282.49 219.93 276.29 219.93zM205.7 220.84c-6.23 0-5.31 9.65.89 9.65S211.89 220.84 205.7 220.84zM199.31 257.05c-6.23 0-5.31 9.65.89 9.65S205.5 257.05 199.31 257.05zM285.42 257.36c-6.23 0-5.31 9.64.89 9.64S291.62 257.36 285.42 257.36zM296.37 290.52c-6.22 0-5.3 9.65.9 9.65S302.57 290.52 296.37 290.52zM192.92 286.26c-6.23 0-5.31 9.65.89 9.65S199.11 286.26 192.92 286.26zM250.12 305.74c-6.23 0-5.3 9.64.9 9.64S256.32 305.74 250.12 305.74zM156.1 370.85c-6.23 0-5.31 9.65.89 9.65S162.3 370.85 156.1 370.85zM324.06 366.59c-6.23 0-5.3 9.65.9 9.65S330.26 366.59 324.06 366.59zM100.72 439.93c-6.23 0-5.3 9.64.89 9.64S106.92 439.93 100.72 439.93zM405 435.87c-6.23 0-5.3 9.64.89 9.64S411.2 435.87 405 435.87zM281.18 443a3 3 0 01-1.09-5.88c13.56-5.22 21.38-24.59 21.46-24.79a3 3 0 015.66 2.24c-.36.9-8.87 22-24.94 28.23A3.22 3.22 0 01281.18 443zM194.88 435.47a3 3 0 01-1.64-.49 32.12 32.12 0 01-7.39-6.55 32.59 32.59 0 01-6.8-14.41 3 3 0 116-1.19 26.56 26.56 0 005.53 11.72 26 26 0 006 5.31 3 3 0 01-1.65 5.61zM205.8 433c-6.23 0-5.31 9.64.89 9.64S212 433 205.8 433z"></path></svg>