<svg xmlns="http://www.w3.org/2000/svg" viewBox="0 0 64 64" id="chinese-temple"><path d="M54.90619 57.8994h-2.8508V43.18547c-.29006.02-.57016.03-.86022.03H12.80483c-.29006 0-.57016-.01-.86022-.03V57.8994H9.09381C7.83987 57.89927 7.81307 60.00274 9.09387 60H54.90619A1.05548 1.05548 0 0054.90619 57.8994zm-37.81023 0H14.98541V52.2379A1.05547 1.05547 0 0117.096 52.238zm5.88159 0H20.877V52.2379a1.05038 1.05038 0 012.10054 0zm14.27386 0h-2.1039V54.81818a3.14764 3.14764 0 10-6.295.00006V57.8994h-2.1039V54.7586c.2243-6.9525 10.2795-6.95109 10.50282.00012zm5.87158 0H41.02245V52.2379a1.05038 1.05038 0 012.10054 0zm5.8916 0H46.904V52.2379a1.05547 1.05547 0 012.11055 0zM30.53672 28.88975v1.47373h2.92656V28.88975A1.46345 1.46345 0 0030.53672 28.88975z"></path><path d="M40.211 30.36348V23.0578H23.789v7.30568h4.64236V28.88975a3.56865 3.56865 0 017.1373 0v1.47373zM24.05218 20.95244H39.94782c2.48008-.02335 5.04882-.96327 6.08463-3.09492-3.78881.32034-7.698-2.02213-8.74784-5.54774l-10.56917.00007c-1.04711 3.5288-4.9634 5.86263-8.74789 5.54755C18.75712 19.62609 21.231 20.95244 24.05218 20.95244z"></path><path d="M54.82237 37.8166a8.309 8.309 0 01-6.353-5.335V31.00037a1.05287 1.05287 0 00-2.10537.00006V32.4689H17.61154V31.00037a1.0528 1.0528 0 00-2.10535 0v1.5401A8.31485 8.31485 0 019.17763 37.8166a10.53853 10.53853 0 01-2.716.18944c.83171 1.76854 3.40021 3.10545 6.34778 3.10545H51.19059c2.94757 0 5.51607-1.33691 6.34778-3.10545A10.50515 10.50515 0 0154.82237 37.8166zM34.22118 10.20449a2.30951 2.30951 0 00-1.16849-2.66123l0-2.50563a1.05282 1.05282 0 00-2.10542 0V7.54325a2.29572 2.29572 0 00-1.25272 2.0401 2.45521 2.45521 0 00.08425.62114z"></path></svg>