<svg xmlns="http://www.w3.org/2000/svg" enable-background="new 0 0 65 65" viewBox="0 0 65 65" id="temple"><path fill="#387bfe" d="M55.01637,40.52906c1.40607,0,2.55031-1.14423,2.55031-2.5406v-1.5612c0-1.40607-1.14424-2.55031-2.55031-2.55031h-9.65815l-2.47277-15.94182c0-0.01941-0.00965-0.04847-0.00965-0.06789c0-0.00971-0.0097-0.01941-0.0097-0.02906c-0.3879-2.43395-1.63879-4.65459-3.52-6.26426c-1.6582-1.42549-3.71395-2.28847-5.87636-2.48242V7.59813l4.98426-2.50178c0.32966-0.16489,0.54303-0.49455,0.54303-0.86304c0-0.36849-0.21336-0.70786-0.54303-0.87275l-5.51758-2.75391c-0.00971-0.00971-0.02912-0.00971-0.03883-0.01941c-0.01935-0.00971-0.04847-0.00971-0.06789-0.01941c-0.09695-0.03877-0.19389-0.05818-0.2909-0.05818c-0.0097,0-0.02906-0.00965-0.03876-0.00965c-0.00971,0-0.00971,0-0.01941,0c-0.10666,0.00965-0.21331,0.02906-0.32002,0.06783c-0.02906,0.00971-0.04847,0.02912-0.07753,0.03883c-0.02912,0.00971-0.06789,0.01941-0.09701,0.03877c-0.04847,0.03883-0.09694,0.07759-0.14542,0.11636L31.81152,0.7909c-0.07759,0.07759-0.13577,0.17454-0.18424,0.27148c-0.00971,0.01941-0.01935,0.04853-0.02906,0.07759c-0.03883,0.10665-0.06789,0.21336-0.06789,0.32972v7.6121c-4.74183,0.43638-8.61091,3.97573-9.39637,8.75639c0,0.00965-0.00971,0.02906-0.00971,0.03877c0,0.01941-0.00971,0.03877-0.00971,0.05818l-2.47272,15.94182h-9.6582c-1.40601,0-2.55031,1.14423-2.55031,2.55031v1.5612c0,1.39637,1.14429,2.5406,2.55031,2.5406h1.14424v17.31878H9.98363c-1.40601,0-2.55031,1.14423-2.55031,2.5503v1.56126c0,1.39631,1.14429,2.5406,2.55031,2.5406h45.03273c1.40607,0,2.55031-1.14429,2.55031-2.5406v-1.56126c0-1.40607-1.14424-2.5503-2.55031-2.5503h-1.14423V40.52906H55.01637z M33.46973,3.0406l2.38542,1.19271l-2.38542,1.20241V3.0406z M43.39941,33.87695h-5.48846l-1.30912-10.71514h5.12973L43.39941,33.87695z M32.50003,10.98242c2.04605,0,4.0242,0.72727,5.58546,2.06546c1.24118,1.05694,2.13329,2.4436,2.59878,3.98544H24.31578C25.40184,13.46484,28.66971,10.98242,32.50003,10.98242z M23.91818,18.97272h17.16365l0.34908,2.2497H23.5691L23.91818,18.97272z M35.96185,33.87695H29.0382l1.30907-10.71514h4.30546L35.96185,33.87695z M23.2685,23.16181h5.12973L27.0891,33.87695h-5.48846L23.2685,23.16181z M55.01637,59.78723c0.33943,0,0.61091,0.27155,0.61091,0.61091v1.56126c0,0.32966-0.27148,0.60121-0.61091,0.60121H9.98363c-0.33937,0-0.61091-0.27155-0.61091-0.60121v-1.56126c0-0.33937,0.27154-0.61091,0.61091-0.61091H55.01637z M13.06726,57.84784V40.52906h2.73455v17.31878H13.06726z M21.06726,45.08665v3.1321h-3.32605v-3.1321H21.06726z M17.74121,43.14725v-2.61819h3.32605v2.61819H17.74121z M21.06726,50.15814v3.12246h-3.32605v-3.12246H21.06726z M21.06726,55.21999v2.62784h-3.32605v-2.62784H21.06726z M35.47701,43.59333h-5.94425c-1.61938,0-2.9285,1.31878-2.9285,2.92845v11.32605h-3.5976V40.52906h18.98668v17.31878h-3.59754V46.52178C38.39581,44.91211,37.08668,43.59333,35.47701,43.59333z M36.45641,46.52178v11.32605h-7.91276V46.52178c0-0.54303,0.43637-0.98905,0.98911-0.98905h5.94425C36.02003,45.53273,36.45641,45.97875,36.45641,46.52178z M47.25879,45.08665v3.1321h-3.32605v-3.1321H47.25879z M43.93274,43.14725v-2.61819h3.32605v2.61819H43.93274z M47.25879,50.15814v3.12246h-3.32605v-3.12246H47.25879z M47.25879,55.21999v2.62784h-3.32605v-2.62784H47.25879z M49.19818,57.84784V40.52906h2.73455v17.31878H49.19818z M9.98363,38.58966c-0.33937,0-0.61091-0.27148-0.61091-0.6012v-1.5612c0-0.33943,0.27154-0.61092,0.61091-0.61092h45.03273c0.33943,0,0.61091,0.27148,0.61091,0.61092v1.5612c0,0.32972-0.27148,0.6012-0.61091,0.6012H9.98363z"></path><rect width="3.326" height="2.618" x="43.933" y="40.529" fill="#8dd1fe"></rect><rect width="3.326" height="2.628" x="17.741" y="55.22" fill="#8dd1fe"></rect><rect width="3.326" height="3.122" x="17.741" y="50.158" fill="#8dd1fe"></rect><rect width="3.326" height="3.132" x="17.741" y="45.087" fill="#8dd1fe"></rect><rect width="3.326" height="2.618" x="17.741" y="40.529" fill="#8dd1fe"></rect><rect width="3.326" height="3.132" x="43.933" y="45.087" fill="#8dd1fe"></rect><rect width="3.326" height="3.122" x="43.933" y="50.158" fill="#8dd1fe"></rect><rect width="3.326" height="2.628" x="43.933" y="55.22" fill="#8dd1fe"></rect><path fill="#8dd1fe" d="M36.45641,46.52178v11.32605h-7.91276V46.52178c0-0.54303,0.43637-0.98905,0.98911-0.98905h5.94425C36.02003,45.53273,36.45641,45.97875,36.45641,46.52178z"></path><polygon fill="#8dd1fe" points="35.855 4.233 33.47 5.436 33.47 3.041"></polygon><polygon fill="#8dd1fe" points="41.431 21.222 23.569 21.222 23.918 18.973 41.082 18.973"></polygon><polygon fill="#8dd1fe" points="35.962 33.877 29.038 33.877 30.347 23.162 34.653 23.162"></polygon></svg>